<?xml version="1.0" encoding="UTF-8"?>
<svg width="100px" height="50px" viewBox="0 0 100 50" version="1.1" xmlns="http://www.w3.org/2000/svg" xmlns:xlink="http://www.w3.org/1999/xlink">
    <!-- Generator: Sketch 49.3 (51167) - http://www.bohemiancoding.com/sketch -->
    <title>Elements/Logo</title>
    <desc>Created with Sketch.</desc>
    <defs></defs>
    <g id="Elements/Logo" stroke="none" stroke-width="1" fill="none" fill-rule="evenodd">
        <g id="Logo" fill="#FFFFFF">
            <path d="M14.5876316,30.7716667 C15.057807,29.9146491 15.330614,28.9216667 15.330614,27.8365789 C15.330614,25.8514912 14.6025439,24.4699123 13.3060526,23.3400877 C11.9718421,22.1874561 10.6902632,21.6883333 8.80254386,21.6716667 L0.794649123,21.6716667 L0.794649123,41.782193 L9.03763158,41.782193 C11.9420175,41.782193 13.2683333,41.0769298 14.5727193,39.8786842 C15.4148246,39.0971053 16.4604386,37.6330702 16.4604386,35.2760526 C16.4604386,32.9471053 15.4148246,31.5672807 14.5876316,30.7716667 Z M8.80254386,38.5751754 L3.88149123,38.5751754 L3.88149123,32.0532456 L5.51921053,33.805 L5.51921053,36.859386 L8.80254386,36.859386 C10.0376316,36.859386 10.7279825,36.7541228 11.0999123,36.5041228 L12.2595614,37.7330702 C11.5999123,38.2260526 10.5235965,38.5751754 8.80254386,38.5751754 Z M8.90868421,29.0892105 C9.24201754,29.0892105 9.74991228,29.0357018 10.0007895,28.8839474 L11.1455263,30.1128947 C10.5613158,30.5672807 9.74991228,30.8392105 8.80254386,30.8392105 L3.88149123,30.8392105 L3.88149123,24.9409649 L5.51921053,26.7067544 L5.51921053,29.0892105 L8.90868421,29.0892105 Z M5.86745614,28.7699123 L5.86745614,26.7751754 L8.82447368,26.7751754 C9.3104386,26.7751754 9.735,26.9120175 10.0007895,27.1330702 C10.1209649,27.2453509 10.2735965,27.4646491 10.2735965,27.8365789 C10.2735965,28.7164035 9.32535088,28.7699123 8.90868421,28.7699123 L5.86745614,28.7699123 Z M11.3192105,35.3058772 C11.3192105,35.7076316 11.1148246,36.0348246 10.9779825,36.1479825 C10.7279825,36.382193 10.0990351,36.5041228 8.80254386,36.5041228 L5.85254386,36.5041228 L5.85254386,33.9567544 L8.80254386,33.9567544 C10.4253509,33.9567544 10.6902632,34.1602632 10.9630702,34.3962281 C11.1148246,34.532193 11.3192105,34.7523684 11.3192105,35.3058772 Z M14.9060526,31.6286842 C15.1411404,31.9400877 15.3464035,32.2576316 15.5130702,32.5909649 C15.9227193,33.3874561 16.1192105,34.282193 16.1192105,35.2602632 C16.1192105,36.2699123 15.9227193,37.1795614 15.5130702,38.005 C15.2253509,38.5751754 14.8911404,39.0286842 14.5876316,39.3330702 L13.457807,38.1190351 C14.0797368,37.4137719 14.3981579,36.4742982 14.3981579,35.3058772 C14.3981579,34.3427193 14.1858772,33.5251754 13.7613158,32.8646491 C13.7613158,32.8646491 13.5507895,32.4857018 13.0332456,32.0374561 C12.6157018,31.6971053 12.0928947,31.4313158 11.5016667,31.2269298 C12.685,30.4839474 13.3595614,29.255 13.3595614,27.8365789 C13.3595614,26.6611404 12.8665789,25.5997368 12.0095614,24.8427193 C11.1832456,24.1295614 10.0534211,23.7418421 8.80254386,23.7418421 L2.835,23.7418421 L1.21921053,22.0207895 L8.80254386,22.0207895 C10.5762281,22.0365789 11.7744737,22.4760526 13.0709649,23.6067544 C13.7086842,24.1672807 14.1858772,24.7514912 14.4814912,25.4111404 C14.8227193,26.1242982 14.989386,26.9120175 14.989386,27.8365789 C14.989386,28.8304386 14.739386,29.7637719 14.285,30.605 L14.1481579,30.8392105 C14.5832456,31.2085088 14.9060526,31.6286842 14.9060526,31.6286842 Z" id="Fill-1"></path>
            <path d="M32.8990351,36.5334211 C32.4595614,35.4562281 31.9665789,34.2965789 31.3446491,33.1816667 C31.5341228,33.015 31.7165789,32.8483333 31.8832456,32.6588596 C33.0358772,31.415 33.6876316,29.7395614 33.6876316,28.0562281 C33.6876316,26.2509649 33.2025439,24.7728947 32.239386,23.687807 C31.0946491,22.4071053 29.4113158,21.6720175 27.1972807,21.6720175 L18.8867544,21.6720175 L18.8867544,41.7799123 L23.9595614,41.7799123 L23.9595614,34.8342982 L26.2718421,34.8342982 C26.4235965,35.0018421 26.712193,35.2746491 27.1139474,36.0334211 C27.8420175,37.3974561 28.7358772,39.7255263 29.5779825,41.7799123 L34.8174561,41.7799123 L34.8174561,36.5334211 L32.8990351,36.5334211 Z M21.9876316,32.8781579 L23.6104386,34.6307895 L23.6104386,41.3562281 L21.9876316,39.619386 L21.9876316,32.8781579 Z M21.9876316,25.3948246 L21.9876316,24.9246491 L23.6104386,26.660614 L23.6104386,30.0123684 L27.1972807,30.0123684 C27.6902632,30.0123684 28.1297368,29.8299123 28.4481579,29.5272807 L29.5244737,30.6720175 C28.8876316,31.2939474 28.0771053,31.6500877 27.1972807,31.6500877 L21.9876316,31.6500877 L21.9876316,25.3948246 Z M27.1972807,29.6562281 L23.9595614,29.6562281 L23.9595614,26.8430702 L27.1972807,26.8430702 C28.0613158,26.8430702 28.6148246,27.4492105 28.6148246,28.2457018 C28.6148246,29.0035965 28.0464035,29.6562281 27.1972807,29.6562281 Z M31.4657018,34.1448246 C31.8832456,34.9860526 32.2542982,35.8430702 32.5964035,36.6544737 L32.6797368,36.8746491 L34.3323684,36.8746491 L32.7472807,38.5957018 L31.6174561,38.5957018 L30.2674561,35.4264035 C30.1271053,35.0535965 29.7297368,34.365 29.7297368,34.365 C29.3428947,33.6746491 28.9183333,33.0299123 28.4630702,32.5597368 C29.2069298,32.3404386 29.8814912,31.9000877 30.435,31.3088596 C31.2464035,30.4369298 31.7165789,29.2544737 31.7165789,28.0711404 C31.7165789,26.7290351 31.3981579,25.7281579 30.7534211,25.0079825 C30.0183333,24.1807895 28.8200877,23.7571053 27.1972807,23.7571053 L20.9113158,23.7571053 L19.2964035,22.0202632 L27.1972807,22.0202632 C28.2279825,22.0202632 29.1683333,22.1869298 29.9797368,22.5281579 C30.7534211,22.8465789 31.4279825,23.3167544 31.9665789,23.9237719 C32.8762281,24.9395614 33.339386,26.3351754 33.339386,28.0562281 C33.339386,29.6562281 32.7095614,31.2404386 31.6332456,32.4079825 C31.5683333,32.4781579 31.2727193,32.7834211 30.9323684,33.1334211 C30.9323684,33.1334211 31.4034211,34.0185088 31.4657018,34.1448246 Z M34.4613158,41.3255263 L32.8314912,39.5895614 L32.8314912,38.6939474 L34.4613158,36.9579825 L34.4613158,41.3255263 Z" id="Fill-3"></path>
            <path d="M51.5689474,26.8277193 L51.5689474,21.6715789 L37.7303509,21.6715789 L37.7303509,41.7803509 L51.5689474,41.7803509 L51.5689474,36.5031579 L42.8408772,36.5031579 L42.8408772,34.0382456 L51.2654386,34.0382456 L51.2654386,28.7680702 L42.8408772,28.7680702 L42.8408772,26.8277193 L51.5689474,26.8277193 Z M51.2198246,26.4707018 L49.567193,24.7049123 L49.567193,23.8926316 L51.2198246,22.1268421 L51.2198246,26.4707018 Z M42.4847368,26.6750877 L42.4847368,28.9812281 L40.8163158,30.785614 L40.8163158,24.885614 L42.4847368,26.6750877 Z M40.8321053,32.0347368 L42.4996491,33.8092982 L42.4996491,36.7373684 L40.8321053,38.5277193 L40.8321053,32.0347368 Z M51.2198246,41.3250877 L49.612807,39.6040351 L49.612807,38.7250877 L51.2198246,37.0110526 L51.2198246,41.3250877 Z M51.1514035,36.8592982 L49.5294737,38.6110526 L40.9680702,38.6110526 L42.5838596,36.8592982 L51.1514035,36.8592982 Z M50.9321053,33.5838596 L49.2794737,31.8163158 L49.2794737,30.9750877 L50.9321053,29.2014035 L50.9321053,33.5838596 Z M50.8110526,29.1022807 L49.1803509,30.8540351 L40.9531579,30.8540351 L42.5838596,29.1022807 L50.8110526,29.1022807 Z M39.8084211,23.7566667 L38.185614,22.0207018 L51.0987719,22.0207018 L49.4838596,23.7566667 L39.8084211,23.7566667 Z" id="Fill-5"></path>
            <path d="M76.125614,21.6716667 L73.2212281,33.2655263 L70.984386,21.6716667 L64.3878947,21.6716667 L62.1133333,33.182193 L58.8984211,21.6716667 L53.6659649,21.6716667 L59.6712281,41.7804386 L65.1150877,41.7804386 L67.625614,30.505 L70.2264912,41.7804386 L75.8677193,41.7804386 L81.7668421,21.6716667 L76.125614,21.6716667 Z M56.0773684,23.7567544 L54.3405263,22.0199123 L58.6396491,22.0199123 L57.0098246,23.7567544 L56.0773684,23.7567544 Z M61.8475439,38.3611404 L57.1922807,23.7716667 L58.6931579,22.209386 L62.0826316,34.4102632 L61.8475439,38.3611404 Z M67.2922807,30.4137719 L64.8422807,41.3251754 L63.5308772,39.6883333 L67.2089474,24.8558772 L67.625614,28.9199123 L67.2922807,30.4137719 Z M66.3440351,23.7567544 L64.7440351,22.0199123 L70.5449123,22.0199123 L69.0054386,23.7567544 L66.3440351,23.7567544 Z M72.5010526,38.2927193 L69.1650877,23.7944737 L70.6966667,22.0734211 L72.9870175,33.955 L72.5010526,38.2927193 Z M81.1607018,22.0199123 L79.0378947,23.7567544 L78.0975439,23.7567544 L76.4063158,22.0199123 L81.1607018,22.0199123 Z M75.6177193,41.4085088 L74.3510526,39.6883333 L79.1589474,23.8628947 L81.2668421,22.1418421 L75.6177193,41.4085088 Z" id="Fill-7"></path>
            <path d="M91.0387719,29.1338596 C89.8712281,28.8005263 87.6791228,28.4136842 87.6791228,27.1321053 C87.6791228,26.5022807 88.384386,26.1005263 90.3940351,26.1005263 C91.4861404,26.1005263 92.2817544,26.29 92.5852632,26.54 C92.9414035,26.812807 93.0247368,27.1321053 93.1387719,28.3987719 L97.7642105,28.3987719 C97.7642105,28.1101754 97.8098246,27.2838596 97.5896491,25.9496491 C97.3922807,24.6224561 96.6642105,23.1891228 95.1484211,22.294386 C93.9352632,21.5812281 92.38,21.2329825 90.3940351,21.2329825 C88.1036842,21.2329825 86.3440351,21.6347368 85.0484211,22.4610526 C83.4326316,23.4698246 82.552807,25.1075439 82.552807,27.0636842 C82.552807,29.1882456 83.2966667,30.7417544 84.8124561,31.8715789 C85.9966667,32.7277193 87.5115789,33.1294737 89.5361404,33.7364912 C90.1063158,33.9259649 91.8414035,34.517193 92.5852632,35.0864912 C93.1773684,35.5408772 93.3589474,36.7242105 92.6677193,37.1785965 C92.2659649,37.444386 90.8177193,37.5812281 89.802807,37.5812281 C87.5431579,37.5812281 86.8080702,37.2478947 86.8080702,34.4268421 L82.3703509,34.4268421 C82.3703509,35.6242105 82.4545614,36.6707018 82.5685965,37.2777193 C82.8949123,38.6952632 83.2124561,40.0452632 84.7440351,41.0540351 C86.0940351,41.9478947 87.9510526,42.2215789 90.1878947,42.2215789 C92.2142105,42.2215789 93.8808772,41.8803509 95.1624561,41.2057895 C96.0580702,40.735614 96.7624561,40.1136842 97.2703509,39.3321053 C97.8238596,38.4759649 98.0984211,37.4978947 98.0984211,36.4207018 C98.0984211,31.4996491 94.457193,30.1803509 91.0387719,29.1338596 Z M84.2221053,36.1329825 L82.8949123,34.7829825 L86.3440351,34.7829825 L85.1159649,36.0496491 L84.2221053,36.1329825 Z M90.1580702,39.1663158 C88.4229825,39.1663158 87.1554386,38.9154386 86.3677193,38.4075439 C85.7080702,37.967193 85.3896491,37.4136842 85.2826316,36.5724561 L85.2378947,36.1329825 L86.4510526,34.8812281 C86.4957895,36.1478947 86.7387719,36.8601754 87.2238596,37.3154386 C87.7624561,37.8382456 88.5887719,37.9233333 89.802807,37.9233333 C90.0607018,37.9233333 90.3782456,37.9233333 90.7273684,37.8996491 L91.8414035,39.067193 C91.3563158,39.1347368 90.7957895,39.1663158 90.1580702,39.1663158 Z M93.6615789,28.0417544 L94.807193,26.812807 L95.7545614,26.812807 L97.3089474,28.0417544 L93.6615789,28.0417544 Z M87.7168421,32.8110526 C87.7168421,32.8110526 87.5870175,32.7812281 87.375614,32.712807 C87.1712281,32.644386 86.8835088,32.5461404 86.5492982,32.4022807 L86.3975439,32.3417544 L86.2449123,32.2733333 L86.2308772,32.2654386 C86.1396491,32.212807 86.034386,32.1742105 85.9422807,32.1215789 L85.8054386,32.0531579 C85.7080702,32.0075439 85.6019298,31.9470175 85.5019298,31.8864912 L85.3659649,31.8022807 C85.2677193,31.7426316 85.1764912,31.6812281 85.0861404,31.6136842 L84.9642105,31.5294737 L84.9492982,31.5224561 C84.8282456,31.4312281 84.7063158,31.3329825 84.5922807,31.2268421 C84.4721053,31.1277193 84.3501754,31.0154386 84.2449123,30.8935088 C84.1685965,30.8092982 84.0922807,30.7259649 84.0247368,30.6347368 L83.9405263,30.5136842 L83.9326316,30.5215789 L83.8650877,30.4154386 L83.7361404,30.2329825 L83.6519298,30.0970175 L83.5466667,29.9075439 C83.4931579,29.8242105 83.4554386,29.7408772 83.4177193,29.6575439 L83.3422807,29.4978947 C83.2966667,29.3908772 83.2501754,29.2777193 83.2124561,29.1715789 C82.8949123,28.2996491 82.8484211,27.4505263 82.902807,26.7531579 C82.9089474,26.6540351 82.9168421,26.562807 82.9247368,26.4724561 C83.084386,24.9031579 83.9019298,23.5987719 85.2378947,22.7645614 C86.4808772,21.9680702 88.1712281,21.5812281 90.3940351,21.5812281 C92.2975439,21.5812281 93.7984211,21.9224561 94.9589474,22.5978947 C96.634386,23.5759649 97.1203509,25.1601754 97.2563158,26.017193 C97.3922807,26.8970175 97.4221053,27.5338596 97.4221053,27.9584211 L95.852807,26.7075439 L95.8221053,26.2522807 C95.7703509,25.767193 95.5501754,25.0242105 94.807193,24.417193 C93.8808772,23.6592982 92.4036842,23.2724561 90.3940351,23.2724561 C88.4370175,23.2724561 87.0870175,23.5382456 86.1317544,24.0987719 C85.8431579,24.2803509 85.3659649,24.7207018 85.3659649,24.7207018 C85.3659649,24.7207018 85.0107018,25.1373684 84.8957895,25.4636842 L84.8361404,25.6382456 C84.7063158,26.0329825 84.5782456,26.5785965 84.5782456,27.2154386 L84.5782456,27.2461404 C84.5922807,27.39 84.5922807,27.5259649 84.6080702,27.6707018 C84.63,27.8601754 84.6607018,28.0347368 84.6984211,28.2022807 L84.7142105,28.2619298 C84.7677193,28.5049123 84.8431579,28.7321053 84.9335088,28.9364912 L85.0107018,29.1031579 C85.0633333,29.2022807 85.1238596,29.3005263 85.1835088,29.3908772 L85.2378947,29.4750877 L85.3896491,29.6724561 L85.4721053,29.7785965 C85.5475439,29.8540351 85.6238596,29.9382456 85.7080702,30.0136842 L85.8212281,30.1198246 L85.8291228,30.1119298 L86.025614,30.2636842 L86.0940351,30.3163158 L86.2159649,30.3996491 C86.3063158,30.4610526 86.3975439,30.5136842 86.4957895,30.567193 C86.9896491,30.8329825 87.5650877,31.0750877 88.0352632,31.2566667 C88.1107018,31.2873684 88.1791228,31.3101754 88.2405263,31.3329825 C88.407193,31.3935088 88.5510526,31.4461404 88.657193,31.4847368 C88.8080702,31.5294737 88.8922807,31.5601754 88.8922807,31.5601754 L87.7168421,32.8110526 Z M96.9685965,39.1505263 C96.7484211,39.4838596 96.4975439,39.7882456 96.1949123,40.0610526 L95.0957895,38.9005263 C95.7387719,38.2707018 96.0729825,37.444386 96.0729825,36.4207018 C96.0729825,34.8812281 95.6326316,33.7742105 94.6922807,32.9101754 C93.8510526,32.1364912 92.5852632,31.5294737 90.4457895,30.8935088 C88.7405263,30.3698246 87.4747368,29.9750877 86.7159649,29.4215789 C85.98,28.8987719 85.6703509,28.1935088 85.6703509,27.0636842 C85.6703509,26.3584211 85.8598246,25.812807 86.2308772,25.4101754 L87.4291228,26.6768421 C87.3449123,26.8285965 87.3229825,26.9952632 87.3229825,27.1321053 C87.3229825,27.7540351 87.7168421,28.2619298 88.4747368,28.6636842 C89.0440351,28.967193 89.7484211,29.1566667 90.3782456,29.3233333 C90.575614,29.3759649 90.7650877,29.4215789 90.9326316,29.4750877 C92.6001754,29.9978947 94.3589474,30.567193 95.6326316,31.5978947 C96.3080702,32.1514035 96.8159649,32.7584211 97.1721053,33.5014035 C97.5598246,34.3277193 97.7642105,35.3057895 97.7642105,36.4207018 C97.7642105,37.4294737 97.4905263,38.3391228 96.9685965,39.1505263 Z" id="Fill-9"></path>
            <path d="M46.5280702,3.01333333 C45.7184211,1.6554386 44.1280702,0.0492982456 41.0473684,0.000175438596 L33.4289474,0.000175438596 L33.4289474,18.8484211 L41.3807018,18.8484211 C44.7605263,18.7984211 46.272807,17.0001754 46.954386,15.4870175 C47.6780702,13.8870175 47.8201754,11.8685965 47.8201754,9.14666667 C47.8201754,6.46070175 47.4078947,4.52035088 46.5280702,3.01333333 Z M41.3807018,15.8633333 L36.4394737,15.8633333 L38.022807,14.2861404 L40.8412281,14.2861404 C41.4587719,14.2861404 41.7780702,14.3142105 42.0912281,14.2212281 L43.2412281,15.4650877 C42.8149123,15.707193 42.2333333,15.8633333 41.3807018,15.8633333 Z M36.3333333,15.7703509 L36.3333333,3.01333333 L37.8947368,4.69052632 L37.8947368,14.2212281 L36.3333333,15.7703509 Z M38.2210526,13.9519298 L38.2210526,4.89666667 L40.4789474,4.89666667 C41.4307018,4.89666667 41.9491228,5.03877193 42.3105263,5.48 C42.6587719,5.92736842 42.9780702,6.97912281 42.9780702,9.14666667 C42.9780702,10.8238596 42.9149123,12.6580702 42.4885965,13.5107018 C42.2824561,13.9019298 42.027193,13.9519298 40.8622807,13.9519298 L38.2210526,13.9519298 Z M46.6561404,15.3589474 C46.3359649,16.0835088 45.8815789,16.7019298 45.3280702,17.1712281 L44.2701754,16.0194737 C44.6614035,15.6861404 44.9807018,15.2449123 45.2149123,14.7115789 C45.804386,13.4115789 45.9105263,11.6273684 45.9105263,9.14666667 C45.9105263,6.83701754 45.577193,5.16684211 44.8885965,3.99403509 C44.0929825,2.63614035 42.8008772,1.96157895 41.0473684,1.96157895 L35.3385965,1.96157895 L33.8192982,0.333508772 L41.0473684,0.333508772 C43.9719298,0.376491228 45.4842105,1.91157895 46.2447368,3.19052632 C47.0964912,4.62649123 47.4868421,6.52385965 47.4868421,9.14666667 C47.4868421,11.8335088 47.3447368,13.8098246 46.6561404,15.3589474 Z" id="Fill-11"></path>
            <path d="M92.8136842,0.00701754386 L92.8136842,8.30877193 L88.5461404,0.00701754386 L83.7549123,0.00701754386 L83.7549123,18.8482456 L88.5461404,18.8482456 L88.5461404,10.5114035 L92.8136842,18.8482456 L97.612807,18.8482456 L97.612807,0.00701754386 L92.8136842,0.00701754386 Z M93.2531579,0.319298246 L97.2005263,0.319298246 L95.667193,1.94736842 L94.7663158,1.94736842 L93.2531579,0.319298246 Z M84.2084211,0.319298246 L88.2347368,0.319298246 L86.8426316,1.94736842 L85.7207018,1.94736842 L84.2084211,0.319298246 Z M86.9698246,2.0254386 L88.3619298,0.398245614 L92.8136842,9.14824561 L92.8136842,12.6438596 L86.9698246,2.0254386 Z M95.717193,16.7377193 L95.717193,2.10350877 L97.2785965,0.447368421 L97.2785965,18.4008772 L95.717193,16.7377193 Z M86.6724561,16.7236842 L86.6724561,7.16666667 L88.2207018,10.0570175 L88.2207018,18.4008772 L86.6724561,16.7236842 Z" id="Fill-14"></path>
            <path d="M17.5627193,0.000526315789 L17.5627193,18.8487719 L30.520614,18.8487719 L30.520614,13.9022807 L22.347807,13.9022807 L22.347807,11.5917544 L30.2355263,11.5917544 L30.2355263,6.6522807 L22.347807,6.6522807 L22.347807,4.83298246 L30.520614,4.83298246 L30.520614,0.000526315789 L17.5627193,0.000526315789 Z M17.9881579,0.326842105 L30.079386,0.326842105 L28.5671053,1.95491228 L19.5083333,1.95491228 L17.9881579,0.326842105 Z M28.6451754,2.84263158 L28.6451754,2.08210526 L30.1925439,0.425964912 L30.1925439,4.49877193 L28.6451754,2.84263158 Z M20.452193,3.01280702 L22.0144737,4.69 L22.0144737,6.85140351 L20.452193,8.54263158 L20.452193,3.01280702 Z M22.1065789,6.9654386 L29.8100877,6.9654386 L28.2828947,8.60666667 L20.5802632,8.60666667 L22.1065789,6.9654386 Z M28.3758772,9.50929825 L28.3758772,8.72070175 L29.9232456,7.05754386 L29.9232456,11.1654386 L28.3758772,9.50929825 Z M20.4662281,9.71368421 L22.0276316,11.3768421 L22.0276316,14.1215789 L20.4662281,15.7996491 L20.4662281,9.71368421 Z M22.1065789,14.235614 L30.129386,14.235614 L28.6100877,15.8777193 L20.5942982,15.8777193 L22.1065789,14.235614 Z M28.6881579,16.8084211 L28.6881579,15.9838596 L30.1925439,14.3777193 L30.1925439,18.4224561 L28.6881579,16.8084211 Z" id="Fill-16"></path>
            <path d="M67.8950877,0.000526315789 L67.8950877,18.8487719 L80.8521053,18.8487719 L80.8521053,13.9022807 L72.6801754,13.9022807 L72.6801754,11.5917544 L80.5670175,11.5917544 L80.5670175,6.6522807 L72.6801754,6.6522807 L72.6801754,4.83298246 L80.8521053,4.83298246 L80.8521053,0.000526315789 L67.8950877,0.000526315789 Z M68.3196491,0.326842105 L80.4117544,0.326842105 L78.8994737,1.95491228 L69.8407018,1.95491228 L68.3196491,0.326842105 Z M78.9775439,2.84263158 L78.9775439,2.08210526 L80.5240351,0.425964912 L80.5240351,4.49877193 L78.9775439,2.84263158 Z M70.7845614,3.01280702 L72.3450877,4.69 L72.3450877,6.85140351 L70.7845614,8.54263158 L70.7845614,3.01280702 Z M72.4380702,6.9654386 L80.1424561,6.9654386 L78.6152632,8.60666667 L70.9117544,8.60666667 L72.4380702,6.9654386 Z M78.7064912,9.50929825 L78.7064912,8.72070175 L80.2547368,7.05754386 L80.2547368,11.1654386 L78.7064912,9.50929825 Z M70.7985965,9.71368421 L72.36,11.3768421 L72.36,14.1215789 L70.7985965,15.7996491 L70.7985965,9.71368421 Z M72.4380702,14.235614 L80.46,14.235614 L78.9424561,15.8777193 L70.9266667,15.8777193 L72.4380702,14.235614 Z M79.0205263,16.8084211 L79.0205263,15.9838596 L80.5240351,14.3777193 L80.5240351,18.4224561 L79.0205263,16.8084211 Z" id="Fill-18"></path>
            <path d="M13.915614,13.9298246 C13.5033333,12.9210526 13.0419298,11.8333333 12.4603509,10.7885965 C12.6375439,10.6324561 12.8077193,10.4763158 12.9647368,10.2982456 C14.0436842,9.13245614 14.6542105,7.5622807 14.6542105,5.98421053 C14.6542105,4.29298246 14.1989474,2.90701754 13.2980702,1.89035088 C12.2252632,0.688596491 10.6498246,0 8.57701754,0 L0.795438596,0 L0.795438596,18.8482456 L5.5445614,18.8482456 L5.5445614,12.3385965 L7.71035088,12.3385965 C7.85245614,12.4947368 8.12175439,12.7508772 8.49807018,13.4614035 C9.17964912,14.7403509 10.0173684,16.9219298 10.8059649,18.8482456 L15.7112281,18.8482456 L15.7112281,13.9298246 L13.915614,13.9298246 Z M3.69894737,10.504386 L5.21824561,12.145614 L5.21824561,18.4508772 L3.69894737,16.822807 L3.69894737,10.504386 Z M3.69894737,3.48947368 L3.69894737,3.04912281 L5.21824561,4.67631579 L5.21824561,7.81842105 L8.57701754,7.81842105 C9.03754386,7.81842105 9.44982456,7.64736842 9.74807018,7.36315789 L10.7559649,8.43596491 C10.1594737,9.01929825 9.40070175,9.35263158 8.57701754,9.35263158 L3.69894737,9.35263158 L3.69894737,3.48947368 Z M8.57701754,7.48333333 L5.5445614,7.48333333 L5.5445614,4.84736842 L8.57701754,4.84736842 C9.38578947,4.84736842 9.90421053,5.41491228 9.90421053,6.1622807 C9.90421053,6.87280702 9.37175439,7.48333333 8.57701754,7.48333333 Z M12.5735088,11.6912281 C12.9647368,12.4807018 13.3121053,13.2833333 13.6314035,14.0438596 L13.7094737,14.25 L15.2577193,14.25 L13.7735088,15.8631579 L12.715614,15.8631579 L11.4515789,12.8921053 C11.3208772,12.5429825 10.9480702,11.8973684 10.9480702,11.8973684 C10.5857895,11.2508772 10.1884211,10.6464912 9.76210526,10.2061404 C10.4577193,10 11.0901754,9.5877193 11.6077193,9.03333333 C12.3673684,8.21578947 12.8077193,7.10701754 12.8077193,5.99824561 C12.8077193,4.74035088 12.5094737,3.80263158 11.9059649,3.12719298 C11.2182456,2.35263158 10.0963158,1.95438596 8.57701754,1.95438596 L2.69105263,1.95438596 L1.17877193,0.327192982 L8.57701754,0.327192982 C9.54192982,0.327192982 10.4226316,0.48245614 11.1822807,0.802631579 C11.9059649,1.10087719 12.5384211,1.54210526 13.0419298,2.11052632 C13.8936842,3.06315789 14.3270175,4.37105263 14.3270175,5.98421053 C14.3270175,7.48333333 13.7384211,8.96929825 12.7296491,10.0640351 C12.67,10.1289474 12.392807,10.4157895 12.0735088,10.7429825 C12.0735088,10.7429825 12.515614,11.572807 12.5735088,11.6912281 Z M15.3778947,18.4219298 L13.8515789,16.7947368 L13.8515789,15.9561404 L15.3778947,14.3280702 L15.3778947,18.4219298 Z" id="Fill-20"></path>
            <path d="M66.39,0.000526315789 L59.3829825,0.000526315789 L55.0750877,5.57508772 L55.0750877,0.000526315789 L55.0733333,0.000526315789 L50.2759649,0.000526315789 L50.2750877,0.000526315789 L50.2750877,18.8487719 L50.2759649,18.8487719 L55.0733333,18.8487719 L55.0750877,18.8487719 L55.0750877,13.5373684 L56.2408772,12.1338596 L60.0145614,18.8487719 L60.0163158,18.8487719 L66.4847368,18.8487719 L66.1891228,18.3996491 L59.4777193,8.24964912 L66.3926316,0.000526315789 L66.39,0.000526315789 Z M59.6207018,0.333859649 L65.5952632,0.333859649 L62.2075439,1.94350877 L61.0873684,1.94350877 L59.6207018,0.333859649 Z M51.2794737,0.912807018 L50.7373684,0.333859649 L54.6136842,0.333859649 L53.0847368,1.94350877 L52.2478947,1.94350877 L51.2794737,0.912807018 Z M53.1794737,2.04 L54.7417544,0.39877193 L54.7417544,6.4645614 L53.1864912,11.1961404 L53.1864912,11.1935088 L53.1794737,11.2145614 L53.1794737,2.04 Z M59.0233333,8.14526316 L57.2715789,8.04175439 L62.3031579,2.05315789 L62.3101754,2.05315789 L65.5180702,0.50754386 L60.1391228,6.94438596 L59.1294737,8.1522807 L59.0233333,8.14526316 Z M62.8566667,16.7794737 L57.7838596,9.08649123 L57.1908772,8.18736842 L59.0829825,8.29263158 L59.1145614,8.29350877 L61.0821053,11.2733333 L65.7698246,18.3715789 L62.8566667,16.7794737 Z M53.1952632,12.9075439 L54.7417544,13.5707018 L54.7417544,18.4522807 L53.9812281,17.6364912 L53.2014035,16.794386 L53.2014035,15.6785965 L53.1952632,15.6785965 L53.1952632,12.9075439 Z" id="Fill-23"></path>
            <polygon id="Fill-25" points="92.0210526 45.9714912 96.322807 45.9714912 96.322807 45.6811404 92.0210526 45.6811404"></polygon>
            <polygon id="Fill-27" points="93.304386 46.7486842 97.6070175 46.7486842 97.6070175 46.4583333 93.304386 46.4583333"></polygon>
            <polygon id="Fill-28" points="94.1359649 47.5451754 98.4377193 47.5451754 98.4377193 47.2548246 94.1359649 47.2548246"></polygon>
            <polygon id="Fill-29" points="93.304386 48.3416667 97.6070175 48.3416667 97.6070175 48.052193 93.304386 48.052193"></polygon>
            <polygon id="Fill-30" points="92.0236842 49.0864035 96.3254386 49.0864035 96.3254386 48.7960526 92.0236842 48.7960526"></polygon>
            <path d="M92.9190351,46.8413158 L92.9216667,46.8535965 L92.6988596,46.7176316 C92.527807,46.6123684 92.2672807,46.6000877 92.1181579,46.692193 L91.1734211,47.2746491 C91.0260526,47.3658772 91.0435965,47.5264035 91.2155263,47.6316667 L91.9541228,48.087807 C92.1269298,48.1930702 92.3892105,48.2053509 92.5357018,48.1141228 L93.032193,47.8088596 L93.4813158,47.5316667 L93.759386,47.3597368 L92.9190351,46.8413158 Z" id="Fill-31"></path>
            <path d="M83.7899123,48.1801754 L84.3083333,49.0766667 L83.9635965,49.0766667 L83.4100877,49.0766667 L82.7995614,49.0766667 C82.6171053,49.0766667 82.3820175,48.9284211 82.275,48.7450877 L81.8197368,47.955614 C81.7135965,47.7722807 81.7767544,47.6222807 81.9592105,47.6222807 L83.1232456,47.6222807 C83.3065789,47.6222807 83.5442982,47.7722807 83.647807,47.955614 L83.7846491,48.1933333 L83.7899123,48.1801754 Z" id="Fill-32"></path>
            <path d="M88.6444737,48.1801754 L89.1620175,49.0766667 L88.8181579,49.0766667 L88.2646491,49.0766667 L87.6541228,49.0766667 C87.4707895,49.0766667 87.2357018,48.9284211 87.1295614,48.7450877 L86.6742982,47.955614 C86.5681579,47.7722807 86.6313158,47.6222807 86.8146491,47.6222807 L87.977807,47.6222807 C88.1602632,47.6222807 88.3971053,47.7722807 88.5023684,47.955614 L88.6400877,48.1933333 L88.6444737,48.1801754 Z" id="Fill-33"></path>
            <path d="M86.1901754,48.1801754 L86.1857895,48.1933333 L86.0489474,47.955614 C85.9445614,47.7722807 85.7068421,47.6222807 85.524386,47.6222807 L84.3612281,47.6222807 C84.1778947,47.6222807 84.1138596,47.7722807 84.22,47.955614 L84.6752632,48.7450877 C84.7822807,48.9284211 85.0173684,49.0766667 85.1998246,49.0766667 L85.8112281,49.0766667 L86.3638596,49.0766667 L86.7085965,49.0766667 L86.1901754,48.1801754 Z" id="Fill-34"></path>
            <path d="M91.0438596,48.1801754 L91.5631579,49.0766667 L91.2175439,49.0766667 L90.6649123,49.0766667 L90.0535088,49.0766667 C89.8719298,49.0766667 89.6359649,48.9284211 89.5289474,48.7450877 L89.0745614,47.955614 C88.9684211,47.7722807 89.0307018,47.6222807 89.2140351,47.6222807 L90.377193,47.6222807 C90.5605263,47.6222807 90.7982456,47.7722807 90.9035088,47.955614 L91.0394737,48.1933333 L91.0438596,48.1801754 Z" id="Fill-35"></path>
            <path d="M83.825,46.5902632 L84.3434211,45.6946491 L83.997807,45.6946491 L83.4442982,45.6946491 L82.8337719,45.6946491 C82.6513158,45.6946491 82.4162281,45.8428947 82.3092105,46.0244737 L81.8548246,46.8157018 C81.7486842,46.9981579 81.8109649,47.1490351 81.9934211,47.1490351 L83.1574561,47.1490351 C83.3407895,47.1490351 83.5776316,46.9981579 83.6828947,46.8157018 L83.8188596,46.5779825 L83.825,46.5902632 Z" id="Fill-36"></path>
            <path d="M88.6787719,46.5902632 L89.1963158,45.6946491 L88.8524561,45.6946491 L88.2998246,45.6946491 L87.6884211,45.6946491 C87.5050877,45.6946491 87.2708772,45.8428947 87.1638596,46.0244737 L86.7085965,46.8157018 C86.6024561,46.9981579 86.665614,47.1490351 86.8489474,47.1490351 L88.0121053,47.1490351 C88.1945614,47.1490351 88.4314035,46.9981579 88.5366667,46.8157018 L88.6735088,46.5779825 L88.6787719,46.5902632 Z" id="Fill-37"></path>
            <path d="M86.2244737,46.5902632 L86.2200877,46.5779825 L86.0832456,46.8157018 C85.9779825,46.9981579 85.7411404,47.1490351 85.5586842,47.1490351 L84.3955263,47.1490351 C84.212193,47.1490351 84.1481579,46.9990351 84.2542982,46.8157018 L84.7095614,46.0244737 C84.8165789,45.8420175 85.0516667,45.6946491 85.2341228,45.6946491 L85.8446491,45.6946491 L86.3981579,45.6946491 L86.7428947,45.6946491 L86.2244737,46.5902632 Z" id="Fill-38"></path>
            <path d="M81.3871053,48.1801754 L81.9055263,49.0766667 L81.5599123,49.0766667 L81.0064035,49.0766667 L80.3958772,49.0766667 C80.2134211,49.0766667 79.9783333,48.9284211 79.8713158,48.7450877 L79.4169298,47.955614 C79.3107895,47.7722807 79.3730702,47.6222807 79.5555263,47.6222807 L80.7195614,47.6222807 C80.9028947,47.6222807 81.140614,47.7722807 81.245,47.955614 L81.3809649,48.1933333 L81.3871053,48.1801754 Z" id="Fill-39"></path>
            <path d="M81.4213158,46.5902632 L81.9397368,45.6946491 L81.595,45.6946491 L81.040614,45.6946491 L80.4309649,45.6946491 C80.2485088,45.6946491 80.0125439,45.8428947 79.9055263,46.0244737 L79.4511404,46.8157018 C79.345,46.9981579 79.4081579,47.1490351 79.590614,47.1490351 L80.7546491,47.1490351 C80.9379825,47.1490351 81.1748246,46.9981579 81.2792105,46.8157018 L81.4160526,46.5779825 L81.4213158,46.5902632 Z" id="Fill-40"></path>
            <path d="M91.0438596,46.5902632 L91.0394737,46.5779825 L90.9035088,46.8157018 C90.7982456,46.9990351 90.5605263,47.1490351 90.377193,47.1490351 L89.2140351,47.1490351 C89.0307018,47.1490351 88.9684211,46.9981579 89.0745614,46.8157018 L89.5289474,46.0244737 C89.6359649,45.8428947 89.8719298,45.6946491 90.0535088,45.6946491 L90.6649123,45.6946491 L91.2175439,45.6946491 L91.5631579,45.6946491 L91.0438596,46.5902632 Z" id="Fill-41"></path>
            <path d="M5.52403509,47.9317544 L5.5222807,47.9185965 L5.74421053,48.0554386 C5.91614035,48.1607018 6.17754386,48.1721053 6.32578947,48.0817544 L7.27052632,47.4992982 C7.41789474,47.4063158 7.40035088,47.2466667 7.22842105,47.1414035 L6.48894737,46.684386 C6.31701754,46.58 6.05473684,46.5668421 5.90736842,46.6589474 L5.41175439,46.9633333 L4.96263158,47.2414035 L4.68368421,47.4124561 L5.52403509,47.9317544 Z" id="Fill-42"></path>
            <path d="M14.6535965,46.5920175 L14.1351754,45.6955263 L14.4799123,45.6955263 L15.0325439,45.6955263 L15.6439474,45.6955263 C15.8255263,45.6955263 16.0623684,45.8446491 16.1685088,46.0279825 L16.6237719,46.8165789 C16.7299123,46.9999123 16.6667544,47.1499123 16.4834211,47.1499123 L15.319386,47.1499123 C15.1369298,47.1499123 14.9000877,46.9999123 14.7957018,46.8165789 L14.6579825,46.5797368 L14.6535965,46.5920175 Z" id="Fill-43"></path>
            <path d="M9.79947368,46.5920175 L9.28192982,45.6955263 L9.62578947,45.6955263 L10.1784211,45.6955263 L10.7898246,45.6955263 C10.9722807,45.6955263 11.2082456,45.8446491 11.314386,46.0279825 L11.7696491,46.8165789 C11.8757895,46.9999123 11.8126316,47.1499123 11.6292982,47.1499123 L10.4652632,47.1499123 C10.282807,47.1499123 10.0468421,46.9999123 9.94157895,46.8165789 L9.80385965,46.5797368 L9.79947368,46.5920175 Z" id="Fill-44"></path>
            <path d="M12.2536842,46.5920175 L12.2580702,46.5797368 L12.3949123,46.8165789 C12.5001754,46.9999123 12.7370175,47.1499123 12.9185965,47.1499123 L14.0835088,47.1499123 C14.2659649,47.1499123 14.33,46.9999123 14.2238596,46.8165789 L13.7685965,46.0279825 C13.6624561,45.8446491 13.425614,45.6955263 13.2440351,45.6955263 L12.6326316,45.6955263 L12.08,45.6955263 L11.7352632,45.6955263 L12.2536842,46.5920175 Z" id="Fill-45"></path>
            <path d="M7.39921053,46.5920175 L6.88078947,45.6955263 L7.22552632,45.6955263 L7.77815789,45.6955263 L8.3895614,45.6955263 C8.57114035,45.6955263 8.80798246,45.8446491 8.91412281,46.0279825 L9.36938596,46.8165789 C9.47552632,46.9999123 9.41236842,47.1499123 9.22903509,47.1499123 L8.06587719,47.1499123 C7.88254386,47.1499123 7.64570175,46.9999123 7.5404386,46.8165789 L7.40359649,46.5797368 L7.39921053,46.5920175 Z" id="Fill-46"></path>
            <path d="M14.6197368,48.1819298 L14.1013158,49.0784211 L14.4460526,49.0784211 L14.9986842,49.0784211 L15.6100877,49.0784211 C15.7916667,49.0784211 16.0285088,48.9292982 16.1346491,48.7468421 L16.5899123,47.9564912 C16.6960526,47.7749123 16.6328947,47.6240351 16.4495614,47.6240351 L15.2855263,47.6240351 C15.1030702,47.6240351 14.8662281,47.7749123 14.7618421,47.9564912 L14.6241228,48.1942105 L14.6197368,48.1819298 Z" id="Fill-47"></path>
            <path d="M9.76517544,48.1819298 L9.24763158,49.0784211 L9.59149123,49.0784211 L10.1441228,49.0784211 L10.7555263,49.0784211 C10.9388596,49.0784211 11.1739474,48.9292982 11.2800877,48.7468421 L11.7353509,47.9564912 C11.8414912,47.7749123 11.7783333,47.6240351 11.595,47.6240351 L10.4309649,47.6240351 C10.249386,47.6240351 10.0125439,47.7749123 9.9072807,47.9564912 L9.7704386,48.1942105 L9.76517544,48.1819298 Z" id="Fill-48"></path>
            <path d="M12.2190351,48.1819298 L12.2234211,48.1942105 L12.3602632,47.9564912 C12.4655263,47.7749123 12.7023684,47.6240351 12.8839474,47.6240351 L14.0479825,47.6240351 C14.2313158,47.6240351 14.2953509,47.7740351 14.1892105,47.9564912 L13.7339474,48.7468421 C13.627807,48.9301754 13.3909649,49.0784211 13.209386,49.0784211 L12.5979825,49.0784211 L12.0453509,49.0784211 L11.700614,49.0784211 L12.2190351,48.1819298 Z" id="Fill-49"></path>
            <path d="M17.0607018,46.5920175 L16.5422807,45.6955263 L16.8870175,45.6955263 L17.4396491,45.6955263 L18.0510526,45.6955263 C18.2335088,45.6955263 18.4694737,45.8446491 18.575614,46.0279825 L19.0308772,46.8165789 C19.1370175,46.9999123 19.0738596,47.1499123 18.8905263,47.1499123 L17.7273684,47.1499123 C17.5440351,47.1499123 17.307193,46.9999123 17.202807,46.8165789 L17.0650877,46.5797368 L17.0607018,46.5920175 Z" id="Fill-50"></path>
            <path d="M17.0264912,48.1819298 L16.5080702,49.0784211 L16.852807,49.0784211 L17.4054386,49.0784211 L18.0168421,49.0784211 C18.1992982,49.0784211 18.4352632,48.9292982 18.5414035,48.7468421 L18.9966667,47.9564912 C19.102807,47.7749123 19.0396491,47.6240351 18.8563158,47.6240351 L17.6931579,47.6240351 C17.5098246,47.6240351 17.2729825,47.7749123 17.1685965,47.9564912 L17.0308772,48.1942105 L17.0264912,48.1819298 Z" id="Fill-51"></path>
            <path d="M7.39921053,48.1819298 L7.40359649,48.1942105 L7.5404386,47.9564912 C7.64570175,47.7740351 7.88254386,47.6240351 8.06587719,47.6240351 L9.22903509,47.6240351 C9.41236842,47.6240351 9.47552632,47.7749123 9.36938596,47.9564912 L8.91412281,48.7468421 C8.80798246,48.9292982 8.57114035,49.0784211 8.3895614,49.0784211 L7.77815789,49.0784211 L7.22552632,49.0784211 L6.88078947,49.0784211 L7.39921053,48.1819298 Z" id="Fill-52"></path>
            <polygon id="Fill-53" points="2.11578947 49.0864035 6.41754386 49.0864035 6.41754386 48.7960526 2.11578947 48.7960526"></polygon>
            <polygon id="Fill-54" points="0.83245614 48.3092105 5.13508772 48.3092105 5.13508772 48.0188596 0.83245614 48.0188596"></polygon>
            <polygon id="Fill-55" points="0 47.5135965 4.30263158 47.5135965 4.30263158 47.2223684 0 47.2223684"></polygon>
            <polygon id="Fill-56" points="0.83245614 46.7171053 5.13508772 46.7171053 5.13508772 46.4267544 0.83245614 46.4267544"></polygon>
            <polygon id="Fill-57" points="2.1122807 45.9714912 6.41491228 45.9714912 6.41491228 45.6811404 2.1122807 45.6811404"></polygon>
            <polygon id="Fill-58" points="24.9576316 45.0860526 24.9576316 48.8439474 22.0032456 45.0860526 21.5076316 45.0860526 21.5076316 49.7755263 22.0234211 49.7755263 22.0234211 45.9299123 25.0532456 49.7755263 25.4742982 49.7755263 25.4742982 45.0860526"></polygon>
            <polygon id="Fill-59" points="30.1389474 45.0860526 28.5433333 47.4299123 26.9617544 45.0860526 26.3187719 45.0860526 28.2687719 47.9185088 28.2687719 49.7755263 28.8047368 49.7755263 28.8047368 47.9114912 30.7538596 45.0860526"></polygon>
            <path d="M33.3615789,45.0037719 C31.9817544,45.0037719 30.9896491,46.1028947 30.9896491,47.4300877 L30.9896491,47.4423684 C30.9896491,48.7897368 31.9887719,49.8555263 33.3422807,49.8555263 C34.1931579,49.8555263 34.7291228,49.5274561 35.2177193,49.0327193 L34.8685965,48.6897368 C34.4203509,49.1186842 33.9984211,49.3669298 33.3545614,49.3669298 C32.3238596,49.3669298 31.5387719,48.5169298 31.5387719,47.4300877 L31.5387719,47.417807 C31.5387719,46.3379825 32.3168421,45.4941228 33.3545614,45.4941228 C33.9914035,45.4941228 34.434386,45.7616667 34.83,46.1371053 L35.1914035,45.7485088 C34.7221053,45.3055263 34.2124561,45.0037719 33.3615789,45.0037719" id="Fill-60"></path>
            <path d="M40.2969298,45.0037719 C38.8899123,45.0037719 37.9442982,46.1432456 37.9442982,47.4300877 L37.9442982,47.4423684 C37.9442982,48.7844737 38.8557018,49.8555263 40.3302632,49.8555263 C41.1214912,49.8555263 41.7776316,49.5274561 42.2135965,49.1388596 L42.2135965,47.2695614 L40.2758772,47.2695614 L40.2758772,47.745 L41.7039474,47.745 L41.7039474,48.9099123 C41.3828947,49.172193 40.8864035,49.3792105 40.3504386,49.3792105 C39.2118421,49.3792105 38.4934211,48.549386 38.4934211,47.4300877 L38.4934211,47.417807 C38.4934211,46.3713158 39.2381579,45.4941228 40.2758772,45.4941228 C40.9399123,45.4941228 41.3416667,45.7151754 41.7039474,46.0292105 L42.0460526,45.6283333 C41.5767544,45.2318421 41.0872807,45.0037719 40.2969298,45.0037719" id="Fill-61"></path>
            <path d="M43.9363158,47.477807 L43.9363158,45.5734211 L45.3836842,45.5734211 C46.1407018,45.5734211 46.5836842,45.9234211 46.5836842,46.4997368 L46.5836842,46.5111404 C46.5836842,47.1146491 46.0801754,47.477807 45.3766667,47.477807 L43.9363158,47.477807 Z M45.4240351,45.0857018 L43.4064912,45.0857018 L43.4064912,49.7751754 L43.9363158,49.7751754 L43.9363158,47.9532456 L45.2775439,47.9532456 L46.6363158,49.7751754 L47.287193,49.7751754 L45.8459649,47.859386 C46.5836842,47.7242982 47.1178947,47.2699123 47.1178947,46.4918421 L47.1178947,46.477807 C47.1178947,46.109386 46.9854386,45.7813158 46.7564912,45.5541228 C46.4617544,45.259386 46.0012281,45.0857018 45.4240351,45.0857018 Z" id="Fill-62"></path>
            <path d="M50.4424561,49.3666667 C49.3714035,49.3666667 48.5933333,48.4964912 48.5933333,47.4298246 L48.5933333,47.4166667 C48.5933333,46.3508772 49.3573684,45.4938596 50.4301754,45.4938596 C51.5012281,45.4938596 52.2784211,46.3649123 52.2784211,47.4298246 L52.2784211,47.4429825 C52.2784211,48.5078947 51.5152632,49.3666667 50.4424561,49.3666667 M50.4424561,45.0026316 C49.0161404,45.0026316 48.0442105,46.1359649 48.0442105,47.4298246 L48.0442105,47.4429825 C48.0442105,48.7350877 49.0021053,49.8570175 50.4301754,49.8570175 C51.8564912,49.8570175 52.8284211,48.7245614 52.8284211,47.4298246 L52.8284211,47.4166667 C52.8284211,46.1245614 51.8705263,45.0026316 50.4424561,45.0026316" id="Fill-63"></path>
            <path d="M56.1412281,49.3666667 C55.0675439,49.3666667 54.2903509,48.4964912 54.2903509,47.4298246 L54.2903509,47.4166667 C54.2903509,46.3508772 55.054386,45.4938596 56.1263158,45.4938596 C57.1973684,45.4938596 57.9754386,46.3649123 57.9754386,47.4298246 L57.9754386,47.4429825 C57.9754386,48.5078947 57.2122807,49.3666667 56.1412281,49.3666667 M56.1412281,45.0026316 C54.7131579,45.0026316 53.7412281,46.1359649 53.7412281,47.4298246 L53.7412281,47.4429825 C53.7412281,48.7350877 54.6982456,49.8570175 56.1263158,49.8570175 C57.5526316,49.8570175 58.5254386,48.7245614 58.5254386,47.4298246 L58.5254386,47.4166667 C58.5254386,46.1245614 57.5675439,45.0026316 56.1412281,45.0026316" id="Fill-64"></path>
            <polygon id="Fill-65" points="63.5964912 45.0860526 61.8885965 47.6448246 60.1807018 45.0860526 59.6438596 45.0860526 59.6438596 49.7755263 60.1605263 49.7755263 60.1605263 45.9816667 61.8692982 48.4886842 61.8964912 48.4886842 63.604386 45.9755263 63.604386 49.7755263 64.1333333 49.7755263 64.1333333 45.0860526"></polygon>
            <polygon id="Fill-66" points="65.5078947 49.775 66.0377193 49.775 66.0377193 45.0846491 65.5078947 45.0846491"></polygon>
            <polygon id="Fill-67" points="70.8624561 45.0860526 70.8624561 48.8439474 67.9080702 45.0860526 67.4115789 45.0860526 67.4115789 49.7755263 67.9273684 49.7755263 67.9273684 45.9299123 70.9554386 49.7755263 71.3782456 49.7755263 71.3782456 45.0860526"></polygon>
            <path d="M74.8492105,45.0037719 C73.442193,45.0037719 72.4974561,46.1432456 72.4974561,47.4300877 L72.4974561,47.4423684 C72.4974561,48.7844737 73.4079825,49.8555263 74.8825439,49.8555263 C75.6728947,49.8555263 76.3290351,49.5274561 76.7658772,49.1388596 L76.7658772,47.2695614 L74.8281579,47.2695614 L74.8281579,47.745 L76.2562281,47.745 L76.2562281,48.9099123 C75.9360526,49.172193 75.4386842,49.3792105 74.9027193,49.3792105 C73.7641228,49.3792105 73.0465789,48.549386 73.0465789,47.4300877 L73.0465789,47.417807 C73.0465789,46.3713158 73.792193,45.4941228 74.8281579,45.4941228 C75.492193,45.4941228 75.8930702,45.7151754 76.2562281,46.0292105 L76.5983333,45.6283333 C76.1290351,45.2318421 75.6386842,45.0037719 74.8492105,45.0037719" id="Fill-68"></path>
        </g>
    </g>
</svg>