<svg width="85" height="80" viewBox="0 0 85 80" fill="none" xmlns="http://www.w3.org/2000/svg">
<path d="M84.4358 29.9137L84.4445 29.9453L84.4577 29.9752L84.4578 29.9753C84.4579 29.9755 84.4582 29.9762 84.4586 29.9774L84.4611 29.9843C84.4632 29.9904 84.4657 29.9986 84.4684 30.0087C84.4739 30.0293 84.4794 30.0546 84.4842 30.0829C84.4942 30.1414 84.4987 30.1978 84.4987 30.2343L84.5636 77.6933C84.5649 78.6662 83.7836 79.4507 82.8256 79.4521L2.2447 79.5636H2.24409H2.24171C1.78179 79.5636 1.34013 79.38 1.01366 79.0521C0.686662 78.7233 0.501963 78.2765 0.501297 77.8098L0.436412 30.2956C0.437322 30.2874 0.438542 30.2751 0.439293 30.2606L0.439703 30.2526L0.439822 30.2447C0.448119 29.6929 0.709992 29.1577 1.18998 28.8236L13.4167 20.3112L13.6038 20.181V19.953V10.9269C13.6038 9.95408 14.3859 9.17051 15.3442 9.17051H29.2812H29.4181L29.5305 9.09227L41.5178 0.746633C42.1142 0.331544 42.9028 0.333239 43.4974 0.750126L43.4976 0.750261L55.4081 9.09157L55.5208 9.17051H55.6584H69.6567C70.6146 9.17051 71.3971 9.95412 71.3971 10.9269V20.0606V20.2877L71.5832 20.418L83.7508 28.9383C84.0983 29.1816 84.3308 29.53 84.4358 29.9137ZM72.0836 25.0444L71.3969 24.5637V25.4019V35.1426V35.981L72.0836 35.5L79.0394 30.6288L79.5499 30.2713L79.0393 29.9139L72.0836 25.0444ZM48.0325 9.17034H49.4164L48.2828 8.3765L43.7161 5.17857C42.9875 4.66838 42.018 4.66708 41.2881 5.17529L36.6913 8.37583L35.5502 9.17034H36.9406H48.0325ZM67.73 38.5491L67.9161 38.4188V38.1916V14.8038C67.9161 13.6327 66.9667 12.6833 65.7956 12.6833H19.2051C18.034 12.6833 17.0846 13.6327 17.0846 14.8038V38.2886V38.5165L17.2716 38.6467L34.0608 50.3352L34.3251 50.5192L34.5788 50.321L41.4673 44.9385L41.4673 44.9385C42.1 44.444 42.9628 44.4597 43.5742 44.9217L43.5741 44.9218L43.5797 44.9258C43.5877 44.9318 43.5947 44.9366 43.5998 44.94L43.6049 44.9434L50.4375 50.2823L50.6919 50.4812L50.9565 50.2959L67.73 38.5491ZM13.6038 25.284V24.4484L12.918 24.9258L5.75511 29.9129L5.24071 30.2711L5.75512 30.6292L12.918 35.616L13.6038 36.0933V35.2578V25.284ZM4.60857 34.101L3.92171 33.6228L3.92285 34.4597L3.97598 73.3382L3.9772 74.2314L4.68104 73.6814L30.9694 53.141L31.4355 52.7769L30.9501 52.439L4.60857 34.101ZM8.34338 75.2619L7.34253 76.0439L8.61267 76.0421L76.3329 75.9483L77.5973 75.9466L76.601 75.1681L59.7014 61.963L43.8386 49.5682C43.0714 48.9687 41.9946 48.9687 41.2274 49.5681L8.34338 75.2619ZM54.0607 52.3978L53.5777 52.736L54.0423 53.0991L80.3717 73.6727L81.078 74.2246L81.0768 73.3283L81.0237 34.3528L81.0226 33.5158L80.337 33.996L54.0607 52.3978Z" fill="white" stroke="black" stroke-width="0.872771"/>
<path d="M56.4741 22H28.6197C27.4838 22 26.5625 22.9249 26.5625 24.0653C26.5625 25.2056 27.4838 26.1305 28.6197 26.1305H56.4741C57.6103 26.1305 58.5313 25.2056 58.5313 24.0653C58.5313 22.9249 57.6103 22 56.4741 22Z" fill="#F59BBB"/>
<path d="M56.4741 32.7393H28.6197C27.4838 32.7393 26.5625 33.6642 26.5625 34.8045C26.5625 35.9449 27.4838 36.8698 28.6197 36.8698H56.4741C57.6103 36.8698 58.5313 35.9449 58.5313 34.8045C58.5313 33.6642 57.6103 32.7393 56.4741 32.7393Z" fill="#F59BBB"/>
</svg>
