<?xml version="1.0" encoding="UTF-8"?>
<svg width="110px" height="33px" viewBox="0 0 110 33" version="1.1" xmlns="http://www.w3.org/2000/svg" xmlns:xlink="http://www.w3.org/1999/xlink">
    <!-- Generator: Sketch 50.2 (55047) - http://www.bohemiancoding.com/sketch -->
    <title>icon_110x33_original</title>
    <desc>Created with Sketch.</desc>
    <defs></defs>
    <g id="icon_110x33_original" stroke="none" stroke-width="1" fill="none" fill-rule="evenodd">
        <g id="logo-big1" transform="translate(0.000000, 1.000000)">
            <path d="M49.6774194,22.51375 L61.9390681,22.51375" id="Shape" stroke="#8D692E" stroke-width="0.646286591"></path>
            <path d="M49.7168459,0.31 L61.9390681,0.31" id="Shape" stroke="#8D692E" stroke-width="0.646286591"></path>
            <path d="M57.7598566,8.25375 C57.3261649,7.5175 56.8136201,7.09125 55.90681,7.09125 C54.9605735,7.09125 54.1326165,7.75 54.1326165,8.7575 C54.1326165,9.6875 55.078853,10.11375 55.827957,10.42375 L56.5376344,10.73375 C57.9569892,11.35375 59.1397849,12.0125 59.1397849,13.7175 C59.1397849,15.5775 57.6021505,17.01125 55.7491039,17.01125 C54.0143369,17.01125 52.7132616,15.92625 52.3978495,14.26 L53.5806452,13.95 C53.7383513,15.035 54.5663082,15.92625 55.7491039,15.92625 C56.8924731,15.92625 57.9569892,15.035 57.9569892,13.8725 C57.9569892,12.6325 56.9713262,12.20625 55.9462366,11.74125 L55.2759857,11.47 C54.0143369,10.88875 52.9103943,10.26875 52.9103943,8.7575 C52.9103943,7.09125 54.3297491,6.045 55.9462366,6.045 C57.1684588,6.045 58.1541219,6.665 58.7455197,7.71125 L57.7598566,8.25375 Z" id="Shape" fill="#8D692E" fill-rule="nonzero"></path>
            <g id="Group" transform="translate(0.000000, 8.137500)" fill="#8D692E" fill-rule="nonzero">
                <path d="M3.35125448,1.58875 C3.07526882,1.1625 2.79928315,0.89125 2.24731183,0.89125 C1.65591398,0.89125 1.1827957,1.3175 1.1827957,1.89875 C1.1827957,2.44125 1.77419355,2.7125 2.2078853,2.90625 L2.64157706,3.1 C3.46953405,3.44875 4.21863799,3.875 4.21863799,4.8825 C4.21863799,6.00625 3.31182796,6.85875 2.16845878,6.85875 C1.10394265,6.85875 0.35483871,6.2 0.11827957,5.1925 L0.788530466,5.0375 C0.867383513,5.69625 1.37992832,6.23875 2.08960573,6.23875 C2.79928315,6.23875 3.43010753,5.69625 3.43010753,4.99875 C3.43010753,4.2625 2.83870968,3.99125 2.24731183,3.72 L1.85304659,3.565 C1.10394265,3.21625 0.433691756,2.82875 0.433691756,1.9375 C0.433691756,0.93 1.30107527,0.31 2.24731183,0.31 C2.95698925,0.31 3.58781362,0.65875 3.94265233,1.3175 L3.35125448,1.58875 Z" id="Shape"></path>
                <path d="M11.0394265,4.96 L10.2508961,6.78125 L9.46236559,6.78125 L12.4587814,0.0775 L15.3763441,6.78125 L14.5878136,6.78125 L13.7992832,4.96 L11.0394265,4.96 Z M12.4193548,1.705 L11.3154122,4.2625 L13.5232975,4.2625 L12.4193548,1.705 Z" id="Shape"></path>
                <polygon id="Shape" points="21.6451613 6.08375 23.4587814 6.08375 23.4587814 6.7425 20.9354839 6.7425 20.9354839 0.34875 21.6451613 0.34875"></polygon>
                <path d="M35.483871,3.565 C35.483871,5.425 33.9462366,6.85875 32.09319,6.85875 C30.2401434,6.85875 28.702509,5.38625 28.702509,3.565 C28.702509,1.74375 30.2401434,0.2325 32.09319,0.2325 C33.9462366,0.2325 35.483871,1.74375 35.483871,3.565 Z M29.4121864,3.565 C29.4121864,4.99875 30.5949821,6.2 32.09319,6.2 C33.5913978,6.2 34.7741935,4.99875 34.7741935,3.565 C34.7741935,2.13125 33.5913978,0.93 32.09319,0.93 C30.5949821,0.93 29.4121864,2.0925 29.4121864,3.565 Z" id="Shape"></path>
                <polygon id="Shape" points="41.3189964 0.0775 46.4050179 5.30875 46.4050179 0.34875 47.1146953 0.34875 47.1146953 7.0525 42.0286738 1.82125 42.0286738 6.7425 41.3189964 6.7425"></polygon>
                <polygon id="Shape" points="65.4874552 0.34875 68.8781362 0.34875 68.8781362 1.0075 66.2365591 1.0075 66.2365591 2.90625 68.7992832 2.90625 68.7992832 3.565 66.2365591 3.565 66.2365591 6.08375 68.8781362 6.08375 68.8781362 6.7425 65.4874552 6.7425"></polygon>
                <path d="M80.0752688,1.74375 C79.562724,1.20125 78.8530466,0.89125 78.1039427,0.89125 C76.6451613,0.89125 75.4623656,2.13125 75.4623656,3.52625 C75.4623656,4.92125 76.6451613,6.16125 78.1039427,6.16125 C78.8530466,6.16125 79.562724,5.8125 80.0752688,5.30875 L80.0752688,6.2 C79.5232975,6.5875 78.8136201,6.82 78.1433692,6.82 C76.2903226,6.82 74.7526882,5.3475 74.7526882,3.52625 C74.7526882,1.705 76.2903226,0.19375 78.1433692,0.19375 C78.8530466,0.19375 79.5232975,0.3875 80.0752688,0.81375 L80.0752688,1.74375 Z" id="Shape"></path>
                <path d="M87.09319,6.7425 L86.344086,6.7425 L86.344086,0.34875 L87.2903226,0.34875 C88.5125448,0.34875 89.655914,0.65875 89.655914,2.13125 C89.655914,3.1 89.0250896,3.7975 88.0394265,3.91375 L90.1290323,6.78125 L89.2222222,6.78125 L87.2508961,3.9525 L87.0537634,3.9525 L87.0537634,6.7425 L87.09319,6.7425 Z M87.09319,3.3325 L87.3297491,3.3325 C88.1577061,3.3325 88.9856631,3.1775 88.9856631,2.17 C88.9856631,1.12375 88.1971326,1.0075 87.3297491,1.0075 L87.1326165,1.0075 L87.1326165,3.3325 L87.09319,3.3325 Z" id="Shape"></path>
                <polygon id="Shape" points="96.0824373 0.34875 99.4731183 0.34875 99.4731183 1.0075 96.8315412 1.0075 96.8315412 2.90625 99.3942652 2.90625 99.3942652 3.565 96.8315412 3.565 96.8315412 6.08375 99.4731183 6.08375 99.4731183 6.7425 96.0824373 6.7425 96.0824373 0.34875"></polygon>
                <polygon id="Shape" points="108.383513 6.7425 107.673835 6.7425 107.673835 1.0075 106.096774 1.0075 106.096774 0.34875 110 0.34875 110 1.0075 108.422939 1.0075 108.422939 6.7425 108.383513 6.7425"></polygon>
            </g>
            <g id="Group" transform="translate(20.896057, 27.900000)" fill="#8D692E" fill-rule="nonzero">
                <path d="M0.512544803,2.82875 L0.275985663,2.82875 L0.275985663,0.81375 L0.551971326,0.81375 C1.1827957,0.81375 1.37992832,1.0075 1.37992832,1.395 C1.37992832,1.82125 1.06451613,1.97625 0.670250896,1.97625 L0.512544803,1.97625 C0.512544803,1.97625 0.512544803,2.82875 0.512544803,2.82875 Z M0.512544803,1.74375 L0.591397849,1.74375 C0.867383513,1.74375 1.14336918,1.705 1.14336918,1.395 C1.14336918,1.085 0.827956989,1.04625 0.591397849,1.04625 L0.512544803,1.04625 C0.512544803,1.04625 0.512544803,1.74375 0.512544803,1.74375 Z" id="Shape"></path>
                <path d="M4.10035842,1.82125 C4.10035842,2.4025 3.62724014,2.8675 3.03584229,2.8675 C2.44444444,2.8675 1.97132616,2.4025 1.97132616,1.82125 C1.97132616,1.24 2.44444444,0.775 3.03584229,0.775 C3.62724014,0.775 4.10035842,1.24 4.10035842,1.82125 Z M3.82437276,1.82125 C3.82437276,1.395 3.46953405,1.0075 2.99641577,1.0075 C2.52329749,1.0075 2.16845878,1.395 2.16845878,1.82125 C2.16845878,2.28625 2.52329749,2.635 2.99641577,2.635 C3.46953405,2.635 3.82437276,2.2475 3.82437276,1.82125 Z" id="Shape"></path>
                <polygon id="Shape" points="5.44086022 2.2475 6.03225806 0.775 6.62365591 2.2475 7.21505376 0.81375 7.49103943 0.81375 6.62365591 2.90625 6.03225806 1.43375 5.44086022 2.90625 4.5734767 0.81375 4.84946237 0.81375"></polygon>
                <polygon id="Shape" points="8.1218638 0.81375 9.22580645 0.81375 9.22580645 1.04625 8.39784946 1.04625 8.39784946 1.6275 9.22580645 1.6275 9.22580645 1.86 8.39784946 1.86 8.39784946 2.635 9.22580645 2.635 9.22580645 2.8675 8.1218638 2.8675"></polygon>
                <path d="M11.2759857,2.82875 L10.9605735,2.82875 L10.3691756,1.97625 L10.2508961,1.97625 L10.2508961,2.82875 L10.0143369,2.82875 L10.0143369,0.81375 L10.3297491,0.81375 C10.5268817,0.81375 10.7240143,0.81375 10.8817204,0.89125 C11.0394265,1.0075 11.1577061,1.1625 11.1577061,1.35625 C11.1577061,1.6275 10.9605735,1.89875 10.6845878,1.9375 L11.2759857,2.82875 Z M10.2508961,1.74375 L10.3297491,1.74375 C10.6057348,1.74375 10.8817204,1.705 10.8817204,1.395 C10.8817204,1.085 10.5663082,1.04625 10.3297491,1.04625 L10.2508961,1.04625 L10.2508961,1.74375 Z" id="Shape"></path>
                <polygon id="Shape" points="11.9462366 0.81375 13.0501792 0.81375 13.0501792 1.04625 12.2222222 1.04625 12.2222222 1.6275 13.0501792 1.6275 13.0501792 1.86 12.2222222 1.86 12.2222222 2.635 13.0501792 2.635 13.0501792 2.8675 11.9462366 2.8675"></polygon>
                <path d="M13.8387097,0.81375 L14.2724014,0.81375 C14.9032258,0.81375 15.4157706,1.12375 15.4157706,1.82125 C15.4157706,2.51875 14.9032258,2.82875 14.2724014,2.82875 L13.8387097,2.82875 L13.8387097,0.81375 Z M14.0752688,2.59625 L14.1541219,2.59625 C14.6666667,2.59625 15.1397849,2.4025 15.1397849,1.82125 C15.1397849,1.24 14.7060932,1.04625 14.1541219,1.04625 L14.0752688,1.04625 L14.0752688,2.59625 Z" id="Shape"></path>
                <path d="M17.3870968,0.81375 L17.6236559,0.81375 C18.0179211,0.81375 18.3727599,0.93 18.3727599,1.35625 C18.3727599,1.51125 18.2939068,1.66625 18.1362007,1.74375 C18.3727599,1.7825 18.5304659,2.015 18.5304659,2.2475 C18.5304659,2.635 18.1756272,2.82875 17.8207885,2.82875 L17.3476703,2.82875 L17.3476703,0.81375 L17.3870968,0.81375 Z M17.6630824,1.705 L17.7419355,1.705 C17.9784946,1.705 18.1756272,1.66625 18.1756272,1.35625 C18.1756272,1.085 17.9784946,1.0075 17.7419355,1.0075 L17.6630824,1.0075 L17.6630824,1.705 Z M17.6630824,2.59625 L17.8602151,2.59625 C18.0967742,2.59625 18.3333333,2.51875 18.3333333,2.2475 C18.3333333,1.97625 18.0573477,1.89875 17.8207885,1.89875 L17.6630824,1.89875 L17.6630824,2.59625 Z" id="Shape"></path>
                <polygon id="Shape" points="19.1612903 0.81375 19.437276 0.81375 19.9498208 1.66625 20.4623656 0.81375 20.7383513 0.81375 20.0681004 1.9375 20.0681004 2.82875 19.8315412 2.82875 19.8315412 1.9375"></polygon>
                <polygon id="Shape" points="22.90681 2.59625 23.5376344 2.59625 23.5376344 2.82875 22.6702509 2.82875 22.6702509 0.81375 22.90681 0.81375"></polygon>
                <polygon id="Shape" points="24.3651047 0.8525 24.0106029 1.55 23.8530466 1.4725 24.1681593 0.73625"></polygon>
                <path d="M27.2043011,1.82125 C27.2043011,2.4025 26.7311828,2.8675 26.1397849,2.8675 C25.5483871,2.8675 25.0752688,2.4025 25.0752688,1.82125 C25.0752688,1.24 25.5483871,0.775 26.1397849,0.775 C26.7311828,0.775 27.2043011,1.24 27.2043011,1.82125 Z M26.9677419,1.82125 C26.9677419,1.395 26.6129032,1.0075 26.1397849,1.0075 C25.6666667,1.0075 25.311828,1.395 25.311828,1.82125 C25.311828,2.28625 25.6666667,2.635 26.1397849,2.635 C26.6129032,2.635 26.9677419,2.2475 26.9677419,1.82125 Z" id="Shape"></path>
                <path d="M29.2150538,2.82875 L28.8996416,2.82875 L28.3082437,1.97625 L28.1899642,1.97625 L28.1899642,2.82875 L27.953405,2.82875 L27.953405,0.81375 L28.2688172,0.81375 C28.4659498,0.81375 28.6630824,0.81375 28.8207885,0.89125 C28.9784946,1.0075 29.0967742,1.1625 29.0967742,1.35625 C29.0967742,1.6275 28.8996416,1.89875 28.6236559,1.9375 L29.2150538,2.82875 Z M28.1899642,1.74375 L28.2688172,1.74375 C28.5448029,1.74375 28.8207885,1.705 28.8207885,1.395 C28.8207885,1.085 28.5053763,1.04625 28.2688172,1.04625 L28.1899642,1.04625 L28.1899642,1.74375 Z" id="Shape"></path>
                <path d="M29.8853047,0.81375 L30.9892473,0.81375 L30.9892473,1.04625 L30.1612903,1.04625 L30.1612903,1.6275 L30.9892473,1.6275 L30.9892473,1.86 L30.1612903,1.86 L30.1612903,2.635 L30.9892473,2.635 L30.9892473,2.8675 L29.8853047,2.8675 L29.8853047,0.81375 Z M30.7921147,0.27125 L30.3584229,0.65875 L30.2401434,0.58125 L30.5949821,0.155 L30.7921147,0.27125 Z" id="Shape"></path>
                <path d="M32.09319,2.325 L31.8566308,2.82875 L31.5806452,2.82875 L32.5663082,0.73625 L33.5519713,2.82875 L33.2759857,2.82875 L33.0394265,2.325 L32.09319,2.325 Z M32.5663082,1.27875 L32.2114695,2.0925 L32.921147,2.0925 L32.5663082,1.27875 Z" id="Shape"></path>
                <polygon id="Shape" points="34.4587814 2.59625 35.0896057 2.59625 35.0896057 2.82875 34.2222222 2.82875 34.2222222 0.81375 34.4587814 0.81375"></polygon>
                <path d="M37.8888889,1.20125 C37.8100358,1.085 37.7311828,1.0075 37.5734767,1.0075 C37.4157706,1.0075 37.218638,1.12375 37.218638,1.27875 C37.218638,1.43375 37.3763441,1.51125 37.4946237,1.55 L37.6523297,1.58875 C37.9283154,1.705 38.1648746,1.86 38.1648746,2.20875 C38.1648746,2.5575 37.8888889,2.82875 37.4946237,2.82875 C37.1792115,2.82875 36.9032258,2.59625 36.8637993,2.2475 L37.1397849,2.20875 C37.1397849,2.44125 37.297491,2.59625 37.5340502,2.59625 C37.7706093,2.59625 37.9283154,2.4025 37.9283154,2.20875 C37.9283154,1.97625 37.7706093,1.89875 37.5734767,1.82125 L37.4157706,1.74375 C37.1792115,1.6275 36.9820789,1.51125 36.9820789,1.24 C36.9820789,0.93 37.2580645,0.73625 37.5734767,0.73625 C37.8100358,0.73625 38.0071685,0.8525 38.0860215,1.04625 L37.8888889,1.20125 Z" id="Shape"></path>
                <path d="M39.2293907,2.325 L38.9928315,2.82875 L38.7168459,2.82875 L39.702509,0.73625 L40.688172,2.82875 L40.4121864,2.82875 L40.1756272,2.325 L39.2293907,2.325 Z M39.702509,1.27875 L39.3476703,2.0925 L40.0573477,2.0925 L39.702509,1.27875 Z" id="Shape"></path>
                <polygon id="Shape" points="41.5949821 2.59625 42.2258065 2.59625 42.2258065 2.82875 41.3584229 2.82875 41.3584229 0.81375 41.5949821 0.81375"></polygon>
                <path d="M44.8673835,1.82125 C44.8673835,2.4025 44.3942652,2.8675 43.8028674,2.8675 C43.2114695,2.8675 42.7383513,2.4025 42.7383513,1.82125 C42.7383513,1.24 43.2114695,0.775 43.8028674,0.775 C44.3548387,0.775 44.8673835,1.24 44.8673835,1.82125 Z M44.5913978,1.82125 C44.5913978,1.395 44.2365591,1.0075 43.7634409,1.0075 C43.2903226,1.0075 42.9354839,1.395 42.9354839,1.82125 C42.9354839,2.28625 43.3297491,2.635 43.7634409,2.635 C44.2365591,2.635 44.5913978,2.2475 44.5913978,1.82125 Z" id="Shape"></path>
                <polygon id="Shape" points="45.5770609 0.6975 47.1146953 2.28625 47.1146953 0.81375 47.3512545 0.81375 47.3512545 2.90625 45.8136201 1.3175 45.8136201 2.82875 45.5770609 2.82875"></polygon>
                <path d="M49.125448,1.20125 C49.046595,1.085 48.9677419,1.0075 48.8100358,1.0075 C48.6523297,1.0075 48.4551971,1.12375 48.4551971,1.27875 C48.4551971,1.43375 48.6129032,1.51125 48.7311828,1.55 L48.8888889,1.58875 C49.1648746,1.705 49.4014337,1.86 49.4014337,2.20875 C49.4014337,2.5575 49.125448,2.82875 48.7311828,2.82875 C48.4157706,2.82875 48.1397849,2.59625 48.1003584,2.2475 L48.3763441,2.20875 C48.3763441,2.44125 48.5340502,2.59625 48.7706093,2.59625 C49.0071685,2.59625 49.1648746,2.4025 49.1648746,2.20875 C49.1648746,1.97625 49.0071685,1.89875 48.8100358,1.82125 L48.6523297,1.74375 C48.4157706,1.6275 48.218638,1.51125 48.218638,1.24 C48.218638,0.93 48.4946237,0.73625 48.8100358,0.73625 C49.046595,0.73625 49.2437276,0.8525 49.3225806,1.04625 L49.125448,1.20125 Z" id="Shape"></path>
                <path d="M52.5949821,2.5575 C52.437276,2.75125 52.2401434,2.8675 51.9641577,2.8675 C51.609319,2.8675 51.3333333,2.635 51.3333333,2.28625 C51.3333333,2.015 51.4910394,1.89875 51.688172,1.74375 L51.8064516,1.66625 C51.688172,1.55 51.5698925,1.395 51.5698925,1.24 C51.5698925,0.96875 51.7670251,0.81375 52.0430108,0.81375 C52.2795699,0.81375 52.516129,0.96875 52.516129,1.24 C52.516129,1.4725 52.3189964,1.6275 52.1612903,1.74375 L52.5949821,2.2475 L52.8315412,1.97625 L52.9892473,2.13125 L52.7526882,2.4025 L53.1075269,2.82875 L52.8315412,2.82875 L52.5949821,2.5575 Z M51.9641577,1.82125 C51.8064516,1.89875 51.609319,2.05375 51.609319,2.2475 C51.609319,2.44125 51.8064516,2.635 52.0035842,2.635 C52.2007168,2.635 52.3584229,2.48 52.4767025,2.36375 L51.9641577,1.82125 Z M52.0824373,1.4725 C52.2007168,1.395 52.3189964,1.3175 52.3189964,1.1625 C52.3189964,1.0075 52.2007168,0.93 52.0824373,0.93 C51.9641577,0.93 51.8458781,1.0075 51.8458781,1.1625 C51.8458781,1.27875 51.9247312,1.35625 51.9641577,1.395 L52.0824373,1.4725 Z" id="Shape"></path>
                <path d="M55.9462366,1.20125 C55.8673835,1.085 55.7885305,1.0075 55.6308244,1.0075 C55.4731183,1.0075 55.2759857,1.12375 55.2759857,1.27875 C55.2759857,1.43375 55.4336918,1.51125 55.5519713,1.55 L55.7096774,1.58875 C55.9856631,1.705 56.2222222,1.86 56.2222222,2.20875 C56.2222222,2.5575 55.9462366,2.82875 55.5519713,2.82875 C55.2365591,2.82875 54.9605735,2.59625 54.921147,2.2475 L55.1971326,2.20875 C55.1971326,2.44125 55.3548387,2.59625 55.5913978,2.59625 C55.827957,2.59625 55.9856631,2.4025 55.9856631,2.20875 C55.9856631,1.97625 55.827957,1.89875 55.6308244,1.82125 L55.4731183,1.74375 C55.2365591,1.6275 55.0394265,1.51125 55.0394265,1.24 C55.0394265,0.93 55.3154122,0.73625 55.6308244,0.73625 C55.8673835,0.73625 56.0645161,0.8525 56.1433692,1.04625 L55.9462366,1.20125 Z" id="Shape"></path>
                <polygon id="Shape" points="57.5232975 2.82875 57.2867384 2.82875 57.2867384 1.04625 56.8136201 1.04625 56.8136201 0.81375 58.0358423 0.81375 58.0358423 1.04625 57.562724 1.04625"></polygon>
                <polygon id="Shape" points="58.5089606 0.81375 58.7849462 0.81375 59.297491 1.66625 59.8100358 0.81375 60.0860215 0.81375 59.4157706 1.9375 59.4157706 2.82875 59.1792115 2.82875 59.1792115 1.9375"></polygon>
                <polygon id="Shape" points="60.9928315 2.59625 61.6236559 2.59625 61.6236559 2.82875 60.7562724 2.82875 60.7562724 0.81375 60.9928315 0.81375"></polygon>
                <polygon id="Shape" points="62.5307385 2.82875 62.2939068 2.82875 62.2939068 0.81375 62.5307385 0.81375"></polygon>
                <path d="M64.3046595,1.20125 C64.2258065,1.085 64.1469534,1.0075 63.9892473,1.0075 C63.8315412,1.0075 63.6344086,1.12375 63.6344086,1.27875 C63.6344086,1.43375 63.7921147,1.51125 63.9103943,1.55 L64.0681004,1.58875 C64.344086,1.705 64.5806452,1.86 64.5806452,2.20875 C64.5806452,2.5575 64.3046595,2.82875 63.9103943,2.82875 C63.5949821,2.82875 63.3189964,2.59625 63.2795699,2.2475 L63.5555556,2.20875 C63.5555556,2.44125 63.7132616,2.59625 63.9498208,2.59625 C64.1863799,2.59625 64.344086,2.4025 64.344086,2.20875 C64.344086,1.97625 64.1863799,1.89875 63.9892473,1.82125 L63.8315412,1.74375 C63.5949821,1.6275 63.3978495,1.51125 63.3978495,1.24 C63.3978495,0.93 63.6738351,0.73625 63.9892473,0.73625 C64.2258065,0.73625 64.4229391,0.8525 64.5017921,1.04625 L64.3046595,1.20125 Z" id="Shape"></path>
                <polygon id="Shape" points="65.8817204 2.82875 65.6451613 2.82875 65.6451613 1.04625 65.172043 1.04625 65.172043 0.81375 66.3942652 0.81375 66.3942652 1.04625 65.921147 1.04625"></polygon>
                <path d="M67.9713262,1.20125 C67.8924731,1.085 67.8136201,1.0075 67.655914,1.0075 C67.4982079,1.0075 67.3010753,1.12375 67.3010753,1.27875 C67.3010753,1.43375 67.4587814,1.51125 67.5770609,1.55 L67.734767,1.58875 C68.0107527,1.705 68.2473118,1.86 68.2473118,2.20875 C68.2473118,2.5575 67.9713262,2.82875 67.5770609,2.82875 C67.2616487,2.82875 66.9856631,2.59625 66.9462366,2.2475 L67.2222222,2.20875 C67.2222222,2.44125 67.3799283,2.59625 67.6164875,2.59625 C67.8530466,2.59625 68.0107527,2.4025 68.0107527,2.20875 C68.0107527,1.97625 67.8530466,1.89875 67.655914,1.82125 L67.4982079,1.74375 C67.2616487,1.6275 67.0645161,1.51125 67.0645161,1.24 C67.0645161,0.93 67.3405018,0.73625 67.655914,0.73625 C67.8924731,0.73625 68.0896057,0.8525 68.1684588,1.04625 L67.9713262,1.20125 Z" id="Shape"></path>
            </g>
        </g>
    </g>
</svg>