<?xml version="1.0" encoding="utf-8"?>
<!-- Generator: Adobe Illustrator 22.1.0, SVG Export Plug-In . SVG Version: 6.00 Build 0)  -->
<svg version="1.1" id="Слой_1" xmlns="http://www.w3.org/2000/svg" xmlns:xlink="http://www.w3.org/1999/xlink" x="0px" y="0px"
	 width="161px" height="43px" viewBox="0 0 161 43" enable-background="new 0 0 161 43" xml:space="preserve">
<path display="none" fill="#FFFFFF" d="M-265.06-69.18c0.08-0.16,0.132-0.428,0.246-0.458c0.262-0.069,0.554-0.022,0.834-0.022
	c230.28,0,460.56,0,690.84,0c0,60.96,0,121.92,0,182.88c-230.64,0-461.28,0-691.92,0c0-18.32,0-36.64,0-54.96
	c8.827,0,17.653,0,26.514,0c0-1.671,0-3.202,0-4.72c-2.862-0.366-4.014-1.446-4.402-4.262c-0.201-1.46-0.3-2.946-0.301-4.42
	c-0.016-35.477-0.012-70.954-0.012-106.432c0-0.428,0-0.856,0-1.407c0.601,0,1.07-0.001,1.538,0
	c7.119,0.013,14.241-0.096,21.355,0.093c3.373,0.089,6.793,0.469,10.084,1.204c7.788,1.738,13.545,6.114,16.379,13.802
	c1.593,4.321,1.878,8.804,1.334,13.354c-1.025,8.568-5.108,15.207-12.576,19.609c-5.665,3.339-11.958,4.35-18.418,4.527
	c-2.99,0.082-5.984,0.014-9.094,0.014c-0.272,1.098-1.26,2.135,0.076,3.68c9.758,11.283,19.084,22.912,27.816,35.018
	c7.014,9.724,14.202,19.321,21.298,28.987c0.519,0.707,1.092,0.981,1.996,0.976c10.719-0.049,21.437-0.059,32.156-0.061
	c29.638-0.005,59.275-0.002,88.913-0.002c0.32,0,0.643-0.028,0.959,0.005c0.694,0.074,0.96-0.183,1.055-0.911
	c0.414-3.168,0.91-6.326,1.364-9.49c0.298-2.08,0.575-4.162,0.869-6.291c-2.126,0-4.104,0-6.102,0
	c-0.186,0.675-0.338,1.294-0.526,1.903c-1.069,3.455-3.273,5.622-6.97,6.011c-1.508,0.159-3.027,0.283-4.541,0.284
	c-17.679,0.019-35.357,0.012-53.036,0.012c-0.432,0-0.863,0-1.307,0c0-17.694,0-35.259,0-52.834
	c0.258-0.022,0.415-0.047,0.572-0.047c11.519-0.002,23.038-0.031,34.557,0.024c2.065,0.01,4.149,0.246,6.185,0.602
	c1.83,0.32,2.392,1.129,2.607,2.942c0.05,0.419,0.112,0.837,0.163,1.215c1.607,0,3.067,0,4.58,0c0-6.029,0-11.966,0-17.958
	c-1.57,0-3.07,0-4.595,0c-0.021,0.34-0.03,0.617-0.057,0.892c-0.215,2.135-0.946,2.998-3.074,3.346
	c-1.494,0.244-3.015,0.432-4.525,0.438c-11.879,0.048-23.757,0.046-35.636,0.056c-0.267,0-0.533-0.043-0.813-0.066
	c0-16.375,0-32.672,0-49.094c0.532,0,1.003,0,1.474,0c16.879,0,33.757-0.006,50.636,0.009c1.556,0.001,3.118,0.08,4.668,0.218
	c3.852,0.342,5.078,1.396,5.949,4.981c0.018,0.073,0.082,0.135,0.168,0.272c1.274,0,2.592-0.036,3.907,0.015
	c0.707,0.027,0.962-0.215,1.071-0.915c0.337-2.17,0.763-4.325,1.138-6.49c0.373-2.152,0.725-4.307,1.102-6.558
	c-30.794,0-61.442,0-92.154,0c0,1.549,0,3.012,0,4.535c0.419,0.06,0.805,0.122,1.192,0.17c2.096,0.259,2.784,0.856,3.154,2.944
	c0.187,1.058,0.291,2.144,0.299,3.218c0.099,12.275,0.179,24.551,0.25,36.827c0.088,15.195,0.161,30.39,0.243,45.585
	c0.021,3.959,0.098,7.918,0.065,11.877c-0.031,3.755-0.047,7.518-0.304,11.261c-0.221,3.203-1.766,5.082-4.833,5.586
	c-2.893,0.475-5.889,0.691-8.812,0.523c-4.154-0.24-7.342-2.666-9.901-5.738c-2.732-3.279-5.216-6.768-7.762-10.199
	c-10.434-14.061-20.85-28.134-31.271-42.205c-0.368-0.497-0.706-1.017-1.106-1.595c0.633-0.152,1.098-0.263,1.562-0.376
	c6.509-1.589,12.888-3.585,18.476-7.386c11.055-7.521,17-17.82,15.264-31.393c-1.326-10.364-7.142-17.732-17.244-21.195
	c-6.505-2.23-13.329-2.588-20.124-2.612c-17.477-0.063-34.954,0.046-52.43,0.092C-264.352-69.291-264.706-69.219-265.06-69.18z
	 M106.115-5.941c0.364,0.384,0.624,0.685,0.91,0.957c4.32,4.101,8.645,8.197,12.965,12.297
	c17.572,16.675,35.146,33.348,52.702,50.04c0.687,0.653,1.368,0.927,2.321,0.926c24.078-0.025,48.157-0.02,72.235-0.02
	c16.56,0,33.119,0,49.679,0c0.469,0,0.939,0,1.462,0c0.81-5.648,1.601-11.17,2.401-16.751c-2.076,0-4.067,0-6.1,0
	c-0.098,0.31-0.197,0.607-0.285,0.908c-0.09,0.306-0.162,0.618-0.252,0.924c-1.038,3.521-3.251,5.716-6.998,6.123
	c-1.348,0.147-2.708,0.267-4.063,0.268c-17.88,0.018-35.759,0.012-53.639,0.009c-0.42,0-0.84-0.039-1.221-0.059
	c0-17.675,0-35.211,0-52.781c0.327-0.017,0.563-0.04,0.798-0.04c11.16-0.002,22.32-0.021,33.479,0.016
	c1.993,0.007,3.996,0.153,5.974,0.398c2.929,0.363,3.532,1.085,3.803,4.07c0.01,0.107,0.091,0.207,0.14,0.312
	c1.723,0,3.423,0,5.196,0c0-6.019,0-11.958,0-17.965c-1.776,0-3.512,0-5.28,0c-0.026,0.341-0.046,0.616-0.068,0.891
	c-0.171,2.104-0.839,2.942-2.93,3.329c-1.409,0.26-2.854,0.444-4.283,0.452c-11.999,0.06-23.998,0.072-35.996,0.096
	c-0.27,0.001-0.539-0.03-0.841-0.048c0-16.402,0-32.731,0-49.152c0.397,0,0.71,0,1.023,0c17.12,0,34.239-0.024,51.359,0.03
	c2.221,0.007,4.469,0.271,6.653,0.687c2.114,0.403,3.423,1.803,3.629,4.057c0.021,0.227,0.092,0.449,0.156,0.745
	c1.358,0,2.675-0.031,3.99,0.013c0.698,0.023,0.956-0.209,1.067-0.92c0.427-2.722,0.935-5.432,1.412-8.146
	c0.286-1.629,0.571-3.258,0.866-4.944c-30.805,0-61.424,0-92.119,0c0,1.573,0,3.068,0,4.587c0.214,0.049,0.362,0.102,0.514,0.116
	c2.939,0.277,3.602,0.862,3.868,3.784c0.181,1.987,0.241,3.99,0.249,5.986c0.048,12.318,0.064,24.637,0.093,36.955
	c0.025,10.478,0.062,20.957,0.076,31.435c0.013,9.92,0.011,19.84-0.007,29.759c-0.002,1.276-0.083,2.558-0.224,3.827
	c-0.389,3.51-1.868,5.104-5.349,5.781c-1.017,0.198-2.058,0.27-3.087,0.41c-4.894,0.666-8.954-0.864-12.544-4.269
	c-7.047-6.684-14.266-13.186-21.373-19.806C155.167,16.951,141.886,4.526,128.596-7.89c-1.562-1.459-3.112-2.932-4.648-4.38
	c0.133-0.193,0.171-0.265,0.225-0.324c13.182-14.653,26.399-29.277,40.706-42.857c2.978-2.826,6.257-5.339,9.44-7.944
	c1.044-0.855,2.301-1.235,3.696-1.121c0.852,0.07,1.714,0.013,2.574,0.013c0-1.677,0-3.138,0-4.604
	c-0.177-0.045-0.288-0.098-0.399-0.099c-4.48-0.007-8.96-0.025-13.439,0.016c-0.407,0.004-0.904,0.299-1.201,0.61
	c-6.015,6.305-12.007,12.632-18.003,18.956c-10.947,11.545-21.893,23.092-32.84,34.637C111.874-12.001,109.038-9.019,106.115-5.941z
	 M-48.378,58.259c0.454,0,0.73,0,1.005,0c15.156,0,30.314,0.115,45.468-0.058c5.898-0.067,11.863-0.33,17.668-1.291
	c17.189-2.843,31.4-11.114,42.029-24.974c12.95-16.886,17.596-36.112,13.809-56.949c-3.506-19.29-15.025-32.577-33.26-39.73
	c-9.447-3.706-19.501-4.594-29.567-4.641c-18.233-0.084-36.467,0.044-54.701,0.092c-0.786,0.002-1.572,0.081-2.35,0.123
	c0,1.479,0,2.85,0,4.205c3.275,0.424,4.221,1.315,4.49,4.6c0.234,2.863,0.353,5.744,0.355,8.617
	c0.024,31.112,0.021,62.225,0.004,93.337c-0.002,2.635-0.074,5.277-0.275,7.903c-0.259,3.372-1.422,4.372-4.342,4.364
	c-0.072,0-0.145,0.06-0.263,0.113c-0.022,0.251-0.063,0.525-0.065,0.8C-48.382,55.883-48.378,56.996-48.378,58.259z M325.213,58.203
	c0-1.413,0.044-2.694-0.035-3.966c-0.017-0.273-0.453-0.703-0.743-0.746c-2.275-0.335-3.13-1.007-3.398-3.304
	c-0.277-2.375-0.437-4.779-0.439-7.17c-0.013-15.158,0.033-30.316,0.059-45.474c0.027-15.478,0.054-30.957,0.085-46.435
	c0.001-0.367,0.042-0.733,0.076-1.293c0.344,0.384,0.533,0.585,0.711,0.795c11.2,13.202,22.4,26.403,33.597,39.607
	c18.206,21.467,36.41,42.936,54.616,64.402c1.008,1.189,1.817,2.83,3.104,3.419c1.329,0.609,3.129,0.2,4.723,0.217
	c1.46,0.015,2.921,0.003,4.451,0.003c0-0.703,0-1.218,0-1.734c0-37.039-0.003-74.078,0.008-111.117
	c0.001-2.077,0.016-4.164,0.21-6.229c0.3-3.203,0.703-3.525,3.869-3.829c0.066-0.006,0.126-0.077,0.192-0.119
	c0-1.458,0-2.915,0-4.363c-5.898,0-11.715,0-17.56,0c0,1.544,0,3.002,0,4.481c0.271,0.028,0.467,0.051,0.664,0.069
	c2.393,0.222,2.956,0.728,3.379,3.076c0.085,0.47,0.148,0.95,0.155,1.427c0.052,3.235,0.112,6.47,0.12,9.705
	c0.018,7.08,0.012,14.16,0.004,21.239c-0.024,20.758-0.053,41.516-0.084,62.274c-0.001,0.375-0.041,0.749-0.084,1.509
	c-1.8-2.17-3.368-4.068-4.944-5.959c-10.829-12.991-21.727-25.925-32.473-38.984c-15.75-19.14-31.627-38.183-46.376-58.123
	c-0.46-0.622-0.95-0.821-1.701-0.817c-6.44,0.028-12.88,0.015-19.319,0.019c-0.386,0-0.773,0.038-1.18,0.06c0,1.548,0,3.004,0,4.504
	c0.469,0.031,0.863,0.046,1.256,0.084c2.275,0.221,3.224,1.108,3.478,3.365c0.134,1.189,0.221,2.392,0.217,3.588
	c-0.035,9.477-0.112,18.954-0.146,28.431c-0.033,9.279-0.043,18.559-0.041,27.838c0.003,14.959,0.035,29.918,0.024,44.878
	c-0.002,2.155-0.089,4.318-0.292,6.462c-0.224,2.362-1.312,3.305-3.654,3.46c-0.269,0.018-0.538,0.028-0.837,0.043
	c0,1.617,0,3.147,0,4.706C313.013,58.203,319.037,58.203,325.213,58.203z M81.284-64.987c3.395,0.513,4.246,1.328,4.546,4.712
	c0.229,2.584,0.337,5.186,0.339,7.78c0.022,31.638,0.019,63.276,0.005,94.914c-0.001,2.276-0.007,4.566-0.243,6.826
	c-0.387,3.71-0.835,4.081-4.474,4.65c-0.038,0.006-0.074,0.031-0.149,0.064c0,1.396,0,2.809,0,4.196c9.063,0,18.04,0,27.025,0
	c0-1.481,0-2.857,0-4.212c-3.64-0.757-4.14-1.241-4.58-4.944c-0.216-1.82-0.283-3.667-0.284-5.502
	c-0.016-32.998-0.016-65.996,0-98.994c0.001-1.755,0.059-3.524,0.275-5.263c0.412-3.31,1.107-3.897,4.41-4.135
	c0.065-0.005,0.125-0.083,0.191-0.129c0-1.382,0-2.764,0-4.165c-9.049,0-18.024,0-27.06,0C81.284-67.742,81.284-66.4,81.284-64.987z
	 M-156.742,112.206c0.11-0.091,0.221-0.182,0.331-0.274c-0.279-0.3-0.574-0.587-0.831-0.904c-0.262-0.324-0.691-0.676-0.696-1.021
	c-0.054-3.138-0.032-6.277-0.032-9.443c4.483,0,8.9,0,13.365,0c0,3.09,0.034,6.117-0.037,9.142c-0.011,0.451-0.503,0.899-0.799,1.33
	c-0.227,0.33-0.498,0.631-0.905,1.139c2.45,0,4.501,0,6.781,0c-0.231-0.467-0.339-1.015-0.55-1.058
	c-0.957-0.197-1.083-0.908-1.085-1.626c-0.023-6.034-0.038-12.069,0.03-18.103c0.006-0.527,0.635-1.041,0.958-1.571
	c0.195-0.32,0.359-0.659,0.613-1.132c-2.334,0-4.319,0-6.693,0c0.348,0.522,0.546,0.844,0.769,1.147
	c0.287,0.391,0.84,0.76,0.851,1.152c0.077,2.578,0.04,5.16,0.04,7.777c-4.474,0-8.89,0-13.368,0c0-2.606-0.042-5.154,0.042-7.696
	c0.014-0.427,0.585-0.828,0.88-1.254c0.213-0.307,0.396-0.636,0.73-1.18c-2.229,0-4.062-0.013-5.894,0.016
	c-0.221,0.003-0.561,0.188-0.623,0.367c-0.067,0.192,0.084,0.658,0.217,0.691c1.421,0.35,1.252,1.493,1.26,2.502
	c0.026,3.357,0.01,6.715,0.01,10.072c0,2.278,0.063,4.559-0.042,6.833c-0.03,0.654-0.513,1.305-0.855,1.92
	c-0.193,0.346-0.521,0.617-0.788,0.922c0.079,0.085,0.158,0.17,0.236,0.255C-160.799,112.206-158.771,112.206-156.742,112.206z
	 M94.048,92.575c5.031,6.247,9.964,12.231,14.709,18.36c1.253,1.619,2.594,1.419,4.221,1.254c0-0.679,0-1.275,0-1.872
	c0-6.038-0.01-12.076,0.01-18.114c0.003-1.012-0.149-2.164,1.342-2.417c0.163-0.028,0.348-0.486,0.342-0.74
	c-0.003-0.143-0.374-0.393-0.583-0.397c-1.467-0.035-2.935-0.018-4.755-0.018c0.316,0.569,0.453,1.126,0.674,1.162
	c1.281,0.207,1.293,1.117,1.293,2.07c0.001,5.238,0.002,10.476-0.005,15.714c0,0.245-0.077,0.49-0.135,0.841
	c-0.233-0.261-0.373-0.404-0.498-0.559c-4.93-6.088-9.855-12.181-14.798-18.259c-0.31-0.381-0.742-0.885-1.153-0.921
	c-1.336-0.117-2.689-0.044-4.288-0.044c0.229,0.538,0.321,1.101,0.505,1.132c1.471,0.253,1.368,1.35,1.37,2.39
	c0.008,4.119,0.004,8.237,0.003,12.356c0,1.599,0.016,3.199-0.013,4.798c-0.013,0.724-0.054,1.545-0.984,1.683
	c-0.85,0.126-0.785,0.584-0.621,1.216c1.637,0,3.264,0,4.941,0c0-0.375,0-0.71,0-1.109c-1.341,0.018-1.648-0.79-1.649-1.887
	c-0.004-5.318-0.022-10.635-0.032-15.953C93.943,93.118,93.986,92.973,94.048,92.575z M297.727,112.207
	c-0.183-0.459-0.277-1.048-0.45-1.072c-1.499-0.21-1.407-1.334-1.411-2.361c-0.019-5.036-0.01-10.073-0.005-15.109
	c0-0.282,0.058-0.564,0.106-0.999c0.241,0.251,0.356,0.356,0.453,0.476c4.736,5.882,9.537,11.714,14.161,17.683
	c1.244,1.606,2.585,1.627,4.315,1.34c0-0.52,0-0.995,0-1.47c0-5.996-0.002-11.991,0.003-17.987c0-0.518-0.072-1.084,0.109-1.54
	c0.19-0.479,0.565-1.055,1.002-1.228c0.76-0.302,0.754-0.659,0.487-1.233c-1.678,0-3.301,0-5.156,0
	c0.194,0.464,0.292,1.03,0.462,1.053c1.667,0.222,1.449,1.55,1.46,2.584c0.055,5.275,0.028,10.552,0.02,15.828
	c0,0.078-0.116,0.156-0.226,0.294c-0.186-0.229-0.334-0.411-0.481-0.592c-4.983-6.145-9.961-12.293-14.96-18.424
	c-0.279-0.342-0.707-0.753-1.091-0.781c-1.303-0.097-2.618-0.037-4.245-0.037c0.247,0.534,0.363,1.124,0.559,1.152
	c1.36,0.195,1.34,1.165,1.34,2.154c0.001,5.556,0.002,11.112-0.002,16.668c0,0.439,0.08,0.925-0.08,1.304
	c-0.178,0.422-0.541,0.995-0.906,1.064c-0.84,0.159-0.792,0.597-0.652,1.237C294.169,112.207,295.796,112.207,297.727,112.207z
	 M149.117,88.767c-0.093,0.094-0.187,0.187-0.28,0.281c0.233,0.281,0.471,0.557,0.697,0.844c0.295,0.376,0.711,0.722,0.838,1.151
	c0.165,0.559,0.123,1.186,0.128,1.784c0.042,4.555-0.02,9.113,0.14,13.663c0.118,3.342,1.979,5.494,5.289,5.997
	c2.219,0.337,4.537,0.366,6.775,0.15c2.81-0.27,5.002-1.757,5.867-4.583c0.45-1.468,0.691-3.045,0.735-4.582
	c0.112-3.874,0.042-7.752,0.086-11.628c0.009-0.812-0.031-1.71,1.097-2.01c0.198-0.053,0.251-0.654,0.395-1.073
	c-1.633,0-3.02,0-4.699,0c0.242,0.48,0.389,0.823,0.58,1.139c0.283,0.467,0.855,0.912,0.86,1.372
	c0.057,4.674,0.135,9.354-0.026,14.023c-0.095,2.764-1.786,4.73-4.391,5.121c-1.851,0.278-3.818,0.184-5.678-0.102
	c-2.058-0.316-3.215-1.813-3.546-3.869c-0.126-0.785-0.194-1.588-0.198-2.383c-0.02-3.837-0.052-7.675,0.02-11.51
	c0.019-1.011-0.361-2.34,1.216-2.775c0.17-0.047,0.203-0.59,0.332-1.01C153.164,88.767,151.14,88.767,149.117,88.767z
	 M210.181,99.507c0-3.087,0-6.06,0-9.054c3.222,0,6.362,0,9.502,0c-0.057,0.092-0.114,0.185-0.17,0.277
	c0.319,0.281,0.637,0.563,0.956,0.844c0.264-0.359,0.622-0.683,0.77-1.085c0.199-0.539,0.238-1.138,0.358-1.782
	c-5.5,0-10.872,0-16.575,0c0.289,0.543,0.449,0.909,0.666,1.236c0.325,0.488,0.704,0.94,1.03,1.428
	c0.078,0.117,0.05,0.312,0.05,0.471c0.003,5.836,0.011,11.671-0.005,17.507c-0.002,0.758-0.072,1.512-0.988,1.863
	c-0.267,0.102-0.406,0.54-0.603,0.824c0.306,0.11,0.612,0.314,0.919,0.314c4.755-0.002,9.511-0.031,14.266-0.053
	c0.421-0.002,0.842,0,1.244,0c0.186-1.232,0.345-2.28,0.518-3.427c-0.343,0-0.577-0.011-0.81,0.005
	c-0.114,0.007-0.224,0.063-0.325,0.093c-0.514,1.734-0.514,1.734-2.366,1.734c-2.398,0-4.797,0.003-7.195-0.003
	c-0.419-0.001-0.838-0.044-1.251-0.067c0-3.197,0-6.256,0-9.363c2.498,0,4.922,0,7.263,0c0.591,0.503-0.004,2.069,1.547,1.539
	c0-1.585,0-3.128,0-4.641c-1.397-0.507-1.068,0.833-1.531,1.34C215.066,99.507,212.675,99.507,210.181,99.507z M-62.622,112.42
	c0.116-0.106,0.233-0.212,0.35-0.317c-0.264-0.292-0.478-0.746-0.802-0.846c-0.834-0.257-0.976-0.758-0.714-1.465
	c0.581-1.571,1.167-3.14,1.812-4.685c0.102-0.244,0.519-0.501,0.794-0.505c2.837-0.037,5.674-0.036,8.511-0.001
	c0.273,0.003,0.686,0.246,0.789,0.484c0.695,1.61,1.319,3.251,1.977,4.878c0.307,0.76-0.045,1.063-0.732,1.313
	c-0.326,0.118-0.539,0.55-0.803,0.839c0.084,0.085,0.167,0.171,0.251,0.256c2.209,0,4.417,0,6.777,0
	c-0.132-0.433-0.153-0.958-0.333-1.021c-1.375-0.477-1.708-1.728-2.187-2.842c-2.74-6.376-5.444-12.767-8.194-19.138
	c-0.154-0.357-0.612-0.797-0.936-0.804c-0.298-0.006-0.734,0.466-0.892,0.823c-2.969,6.713-5.89,13.446-8.874,20.152
	c-0.272,0.612-0.807,1.221-1.381,1.553c-0.65,0.376-0.708,0.715-0.455,1.325C-65.961,112.42-64.291,112.42-62.622,112.42z
	 M56.613,88.698c-5.438,0-10.777,0-16.431,0c0.247,0.531,0.344,1.136,0.593,1.207c0.923,0.262,1.057,0.979,1.061,1.681
	c0.031,5.997,0.045,11.995-0.022,17.991c-0.006,0.539-0.611,1.074-0.946,1.606c-0.183,0.291-0.383,0.572-0.575,0.858
	c0.308,0.108,0.615,0.31,0.923,0.31c4.717-0.002,9.435-0.031,14.152-0.053c0.429-0.002,0.859,0,1.319,0
	c0.187-1.178,0.353-2.229,0.525-3.312c-0.67-0.198-1.257-0.292-1.33,0.614c-0.079,0.97-0.678,1.118-1.495,1.111
	c-2.759-0.024-5.518-0.006-8.277-0.014c-0.302-0.001-0.604-0.071-0.898-0.108c0-3.164,0-6.229,0-9.33c2.507,0,4.939,0,7.258,0
	c0.654,0.492,0.063,2.055,1.618,1.564c0-1.568,0-3.116,0-4.661c-0.912-0.054-0.912-0.054-1.536,1.329c-2.421,0-4.849,0-7.347,0
	c0-3.03,0-6.011,0-9.028c3.243,0,6.42,0,9.568,0c0.11,0.417,0.197,0.749,0.279,1.058C56.371,91.541,56.384,91.517,56.613,88.698z
	 M424.132,109.389c-0.365-0.158-0.459-0.234-0.505-0.212c-0.287,0.138-0.559,0.306-0.844,0.449
	c-3.462,1.734-7.043,2.026-10.669,0.66c-4.851-1.827-7.394-7.097-6.236-12.732c0.805-3.92,2.892-6.846,6.945-7.656
	c2.057-0.412,4.275-0.178,6.404-0.02c1.456,0.108,2.348,1.083,2.393,2.619c1.645,0.151,2.095-0.518,2.021-2.977
	c-4.285-1.376-8.63-1.923-13.026-0.506c-8.964,2.891-11.772,14.086-5.166,20.462c4.421,4.267,12.454,4.376,17.19,1.892
	C423.287,111.028,423.62,110.094,424.132,109.389z M1.382,88.783c0.214,0.487,0.315,1.061,0.505,1.093
	c1.488,0.249,1.021,1.195,0.726,1.993c-0.969,2.619-1.987,5.22-2.995,7.824c-1.046,2.699-2.102,5.395-3.156,8.096
	c-0.12-0.056-0.179-0.064-0.19-0.09c-2.202-5.605-4.409-11.207-6.565-16.829c-0.08-0.208,0.32-0.623,0.533-0.915
	c0.235-0.322,0.512-0.614,0.971-1.156c-2.511,0-4.577,0-7.067,0c0.458,0.565,0.72,0.891,0.986,1.215
	c0.37,0.45,0.887,0.841,1.094,1.356c2.739,6.811,5.447,13.634,8.119,20.472c0.237,0.607,0.544,0.916,1.113,0.749
	c0.411-0.121,0.953-0.395,1.095-0.742c2.736-6.64,5.408-13.306,8.137-19.949c0.276-0.673,0.838-1.226,1.25-1.846
	c0.234-0.352,0.434-0.726,0.756-1.27C4.792,88.783,3.242,88.783,1.382,88.783z M371.454,88.515c-1.974,0-3.56,0-5.214,0
	c-0.012,0.276-0.125,0.607-0.017,0.713c1.038,1.016,0.283,1.901-0.19,2.775c-1.218,2.248-2.471,4.477-3.716,6.709
	c-0.335,0.6-0.694,1.186-1.114,1.902c-1.758-3.128-3.407-6.093-5.085-9.041c-1.578-2.772-3.041-3.463-6.142-2.926
	c-0.211,0.037-0.47,0.249-0.547,0.444c-0.049,0.124,0.159,0.485,0.316,0.534c2.013,0.63,2.997,2.341,3.997,3.94
	c1.715,2.742,3.275,5.58,4.887,8.386c0.155,0.27,0.311,0.594,0.31,0.893c-0.007,2.357-0.006,4.717-0.128,7.07
	c-0.02,0.397-0.56,0.997-0.96,1.096c-0.754,0.186-0.909,0.501-0.685,1.211c2.334,0,4.671,0,7.007,0
	c0.073-0.102,0.147-0.204,0.22-0.307c-0.292-0.281-0.542-0.719-0.885-0.811c-0.702-0.189-1.009-0.55-1.023-1.254
	c-0.045-2.236-0.146-4.472-0.135-6.708c0.003-0.61,0.221-1.274,0.514-1.819c1.681-3.132,3.337-6.283,5.176-9.322
	c0.578-0.955,1.708-1.572,2.56-2.37C370.872,89.373,371.064,89.031,371.454,88.515z M-263.096,99.469
	c0.873-0.262,1.621-0.489,2.371-0.71c2.652-0.782,5.555,0.163,6.802,2.212c1.259,2.068,0.779,5.267-1.179,7.169
	c-2.379,2.31-5.323,2.712-8.465,2.293c-0.397-0.053-0.792-0.116-1.188-0.175c-0.055,0.117-0.11,0.234-0.165,0.352
	c0.854,0.718,1.393,2.081,2.632,2.024c3.933-0.18,7.407-1.571,10.047-4.628c2.107-2.439,2.569-5.636,1.092-8.123
	c-1.571-2.646-4.096-3.574-7.036-3.473c-1.094,0.038-2.179,0.334-3.368,0.529c0-1.859,0-3.674,0-5.633c3.74,0,7.438,0,11.145,0
	c0-0.958,0-1.771,0-2.674c-4.282,0-8.461,0-12.689,0C-263.096,92.215-263.096,95.748-263.096,99.469z M-197.394,88.74
	c-6.575,0-13.023,0-19.456,0c0,0.941,0,1.762,0,3.044c0.71-0.473,1.15-0.768,1.593-1.06c0.162-0.107,0.327-0.295,0.493-0.297
	c1.974-0.021,3.947-0.013,5.987-0.013c0,6.18,0.001,12.255-0.003,18.33c0,0.358-0.058,0.716-0.074,1.075
	c-0.031,0.731-0.363,1.152-1.105,1.356c-0.321,0.088-0.551,0.507-0.822,0.776c0.084,0.088,0.167,0.176,0.251,0.264
	c2.27,0,4.539,0,6.967,0c-0.113-0.386-0.152-0.928-0.3-0.96c-1.854-0.396-1.612-1.881-1.624-3.148
	c-0.049-5.476-0.042-10.953-0.055-16.43c-0.001-0.424,0-0.848,0-1.304c1.978,0,3.809-0.015,5.639,0.015
	c0.287,0.005,0.74,0.141,0.826,0.341c0.363,0.84,0.955,0.764,1.682,0.582C-197.394,90.454-197.394,89.631-197.394,88.74z"/>
<path fill="#FFFFFF" d="M0.238,0.643c0.082-0.009,0.165-0.026,0.247-0.026c4.064-0.011,8.128-0.036,12.192-0.021
	c1.58,0.006,3.167,0.089,4.679,0.607c2.349,0.805,3.701,2.518,4.01,4.929c0.404,3.156-0.979,5.551-3.549,7.3
	c-1.299,0.884-2.783,1.348-4.296,1.718c-0.108,0.026-0.216,0.052-0.363,0.087c0.093,0.134,0.171,0.255,0.257,0.371
	c2.423,3.272,4.845,6.544,7.271,9.814c0.592,0.798,1.17,1.609,1.805,2.372c0.595,0.714,1.336,1.279,2.302,1.334
	c0.68,0.039,1.376-0.011,2.049-0.122c0.713-0.117,1.073-0.554,1.124-1.299c0.06-0.87,0.064-1.745,0.071-2.618
	c0.008-0.92-0.01-1.841-0.015-2.762c-0.019-3.533-0.036-7.067-0.056-10.6c-0.016-2.854-0.035-5.709-0.058-8.563
	c-0.002-0.25-0.026-0.502-0.07-0.748c-0.086-0.486-0.246-0.624-0.733-0.685c-0.09-0.011-0.18-0.026-0.277-0.04
	c0-0.354,0-0.694,0-1.055c7.141,0,14.268,0,21.429,0c-0.088,0.523-0.17,1.025-0.256,1.525c-0.087,0.503-0.186,1.004-0.265,1.509
	c-0.025,0.163-0.085,0.219-0.249,0.213C47.18,3.871,46.873,3.88,46.577,3.88c-0.02-0.032-0.035-0.046-0.039-0.063
	c-0.203-0.834-0.488-1.079-1.383-1.158c-0.361-0.032-0.724-0.05-1.085-0.051c-3.925-0.004-7.85-0.002-11.774-0.002
	c-0.109,0-0.219,0-0.343,0c0,3.818,0,7.608,0,11.416c0.065,0.006,0.127,0.015,0.189,0.015c2.762-0.002,5.524-0.002,8.286-0.013
	c0.351-0.001,0.705-0.045,1.052-0.102c0.495-0.081,0.665-0.282,0.715-0.778c0.006-0.064,0.008-0.128,0.013-0.207
	c0.355,0,0.703,0,1.069,0c0,1.393,0,2.774,0,4.176c-0.352,0-0.691,0-1.065,0c-0.012-0.088-0.026-0.185-0.038-0.282
	c-0.05-0.422-0.181-0.61-0.606-0.684c-0.473-0.083-0.958-0.138-1.438-0.14C37.45,15.993,34.772,16,32.093,16
	c-0.037,0-0.073,0.006-0.133,0.011c0,4.087,0,8.171,0,12.286c0.103,0,0.203,0,0.304,0c4.111,0,8.222,0.002,12.332-0.003
	c0.352,0,0.705-0.029,1.056-0.066c0.86-0.09,1.372-0.594,1.621-1.398c0.044-0.142,0.079-0.286,0.122-0.443c0.465,0,0.925,0,1.419,0
	c-0.068,0.495-0.133,0.979-0.202,1.463c-0.106,0.736-0.221,1.47-0.317,2.207c-0.022,0.169-0.084,0.229-0.245,0.212
	c-0.074-0.008-0.149-0.001-0.223-0.001c-6.892,0-13.783-0.001-20.675,0c-2.492,0-4.985,0.003-7.477,0.014
	c-0.21,0.001-0.343-0.063-0.464-0.227c-1.65-2.247-3.322-4.479-4.952-6.74c-2.03-2.815-4.199-5.519-6.468-8.143
	c-0.311-0.359-0.081-0.6-0.018-0.856c0.723,0,1.419,0.016,2.115-0.003c1.502-0.041,2.965-0.276,4.283-1.053
	c1.737-1.024,2.686-2.567,2.924-4.56c0.127-1.058,0.06-2.1-0.31-3.105c-0.659-1.788-1.998-2.805-3.809-3.209
	c-0.765-0.171-1.56-0.259-2.345-0.28C8.976,2.063,7.32,2.088,5.665,2.085c-0.109,0-0.218,0-0.358,0c0,0.128,0,0.228,0,0.327
	c0,8.25-0.001,16.499,0.003,24.749c0,0.343,0.023,0.688,0.07,1.028c0.09,0.655,0.358,0.906,1.023,0.991c0,0.353,0,0.709,0,1.098
	c-2.06,0-4.113,0-6.165,0c0-0.372,0-0.744,0-1.116c0.594-0.008,0.894-0.217,1-0.794c0.082-0.444,0.12-0.903,0.12-1.356
	C1.366,19.26,1.365,11.509,1.361,3.758c0-0.324-0.023-0.65-0.06-0.972C1.214,2.037,0.984,1.811,0.238,1.704
	C0.238,1.35,0.238,0.997,0.238,0.643z"/>
<path display="none" fill="#FFFFFF" d="M-265.06-64.62c3.209,0.461,4.197,1.434,4.571,4.652c0.161,1.385,0.259,2.787,0.259,4.181
	c0.014,33.335,0.019,66.669-0.011,100.004c-0.002,1.946-0.164,3.919-0.517,5.83c-0.458,2.48-1.746,3.381-4.302,3.413
	C-265.06,14.1-265.06-25.26-265.06-64.62z"/>
<path fill="#FFFFFF" d="M86.548,15.348c0.68-0.716,1.339-1.409,1.998-2.104c2.546-2.685,5.091-5.369,7.636-8.054
	c1.394-1.47,2.788-2.942,4.186-4.408c0.069-0.072,0.185-0.141,0.279-0.142c1.042-0.009,2.083-0.005,3.125-0.004
	c0.026,0,0.052,0.012,0.093,0.023c0,0.341,0,0.681,0,1.071c-0.2,0-0.401,0.013-0.599-0.003c-0.324-0.027-0.617,0.062-0.859,0.261
	c-0.74,0.606-1.503,1.19-2.195,1.847c-3.327,3.158-6.4,6.558-9.465,9.965c-0.012,0.014-0.021,0.03-0.052,0.075
	c0.357,0.337,0.718,0.679,1.081,1.019c3.09,2.887,6.179,5.776,9.273,8.659c1.653,1.539,3.331,3.051,4.97,4.605
	c0.835,0.792,1.779,1.148,2.917,0.993c0.239-0.033,0.481-0.049,0.718-0.095c0.809-0.157,1.153-0.528,1.244-1.344
	c0.033-0.295,0.051-0.593,0.052-0.89c0.004-2.307,0.005-4.613,0.002-6.92c-0.003-2.437-0.012-4.873-0.018-7.31
	c-0.007-2.864-0.01-5.729-0.022-8.593c-0.002-0.464-0.016-0.93-0.058-1.392c-0.062-0.68-0.216-0.816-0.899-0.88
	c-0.035-0.003-0.07-0.016-0.12-0.027c0-0.353,0-0.701,0-1.067c7.138,0,14.257,0,21.42,0c-0.069,0.392-0.135,0.771-0.201,1.15
	c-0.111,0.631-0.229,1.261-0.328,1.894c-0.026,0.165-0.086,0.219-0.248,0.214c-0.306-0.01-0.612-0.003-0.928-0.003
	c-0.015-0.069-0.031-0.121-0.036-0.173c-0.048-0.524-0.352-0.85-0.844-0.943c-0.508-0.097-1.031-0.158-1.547-0.16
	c-3.981-0.013-7.962-0.007-11.942-0.007c-0.073,0-0.146,0-0.238,0c0,3.818,0,7.615,0,11.429c0.07,0.004,0.133,0.011,0.196,0.011
	c2.79-0.006,5.58-0.008,8.37-0.022c0.332-0.002,0.668-0.044,0.996-0.105c0.486-0.09,0.641-0.285,0.681-0.774
	c0.005-0.064,0.01-0.128,0.016-0.207c0.411,0,0.815,0,1.228,0c0,1.397,0,2.778,0,4.177c-0.412,0-0.808,0-1.208,0
	c-0.011-0.024-0.03-0.048-0.033-0.073c-0.063-0.694-0.203-0.862-0.884-0.946c-0.46-0.057-0.926-0.091-1.389-0.093
	c-2.595-0.009-5.19-0.004-7.785-0.004c-0.055,0-0.11,0.005-0.186,0.009c0,4.086,0,8.163,0,12.273
	c0.089,0.004,0.186,0.014,0.284,0.014c4.158,0.001,8.315,0.002,12.473-0.002c0.315,0,0.631-0.028,0.945-0.062
	c0.871-0.095,1.386-0.605,1.627-1.424c0.021-0.071,0.038-0.144,0.059-0.215c0.02-0.07,0.044-0.139,0.066-0.211
	c0.473,0,0.936,0,1.418,0c-0.186,1.298-0.37,2.582-0.558,3.895c-0.122,0-0.231,0-0.34,0c-3.851,0-7.701,0-11.552,0
	c-5.599,0-11.198-0.001-16.797,0.005c-0.222,0-0.38-0.064-0.54-0.215c-4.082-3.881-8.169-7.758-12.255-11.636
	c-1.005-0.953-2.01-1.906-3.015-2.859C86.693,15.508,86.632,15.438,86.548,15.348z"/>
<path fill="#FFFFFF" d="M50.623,30.277c0-0.293-0.001-0.552,0.001-0.811c0-0.064,0.01-0.128,0.015-0.186
	c0.028-0.012,0.044-0.026,0.061-0.026c0.679,0.002,0.949-0.231,1.01-1.015c0.047-0.611,0.064-1.225,0.064-1.838
	c0.004-7.235,0.005-14.469-0.001-21.704c-0.001-0.668-0.028-1.338-0.083-2.004c-0.062-0.764-0.282-0.971-1.044-1.07
	c0-0.315,0-0.634,0-0.978c0.181-0.01,0.364-0.028,0.547-0.029c4.24-0.011,8.48-0.041,12.72-0.021
	c2.341,0.011,4.678,0.217,6.875,1.079c4.24,1.663,6.919,4.753,7.734,9.238c0.881,4.845-0.2,9.316-3.211,13.242
	c-2.472,3.223-5.776,5.146-9.773,5.807c-1.35,0.223-2.737,0.284-4.108,0.3c-3.524,0.04-7.048,0.013-10.573,0.013
	C50.793,30.277,50.729,30.277,50.623,30.277z M55.684,28.129c0.169,0,0.279,0,0.389,0c1.655,0,3.311,0.003,4.966-0.001
	c1.405-0.004,2.805-0.082,4.194-0.306c1.437-0.231,2.804-0.652,4.007-1.501c2.079-1.467,3.467-3.431,4.219-5.858
	c0.824-2.66,1.05-5.372,0.708-8.128c-0.242-1.95-0.805-3.802-1.945-5.429c-1.321-1.883-3.049-3.241-5.336-3.713
	c-1.205-0.249-2.444-0.39-3.674-0.442c-2.478-0.104-4.961-0.115-7.441-0.162c-0.034-0.001-0.068,0.015-0.087,0.02
	C55.684,11.114,55.684,19.601,55.684,28.129z"/>
<path fill="#FFFFFF" d="M137.495,30.264c-1.436,0-2.837,0-4.257,0c0-0.362,0-0.718,0-1.094c0.07-0.003,0.132-0.006,0.195-0.01
	c0.545-0.036,0.798-0.255,0.85-0.805c0.047-0.499,0.068-1.002,0.068-1.503c0.003-3.478-0.005-6.957-0.006-10.435
	c0-2.158,0.002-4.315,0.01-6.473c0.008-2.204,0.026-4.407,0.034-6.611c0.001-0.278-0.019-0.558-0.05-0.834
	c-0.059-0.525-0.28-0.731-0.809-0.783c-0.091-0.009-0.183-0.012-0.292-0.019c0-0.349,0-0.687,0-1.047
	c0.095-0.005,0.184-0.014,0.274-0.014c1.497-0.001,2.995,0.002,4.492-0.004c0.175-0.001,0.289,0.046,0.396,0.19
	c3.43,4.637,7.121,9.065,10.784,13.515c2.499,3.037,5.033,6.044,7.551,9.065c0.367,0.44,0.731,0.881,1.15,1.386
	c0.01-0.177,0.02-0.264,0.02-0.351c0.007-4.827,0.014-9.654,0.019-14.481c0.002-1.646,0.003-3.293-0.001-4.939
	c-0.002-0.752-0.016-1.504-0.028-2.257c-0.002-0.111-0.016-0.223-0.036-0.332c-0.098-0.546-0.229-0.664-0.786-0.715
	c-0.046-0.004-0.091-0.01-0.154-0.016c0-0.344,0-0.683,0-1.042c1.359,0,2.712,0,4.083,0c0,0.337,0,0.676,0,1.015
	c-0.015,0.01-0.029,0.026-0.044,0.027c-0.736,0.071-0.83,0.146-0.9,0.89c-0.045,0.48-0.049,0.965-0.049,1.448
	c-0.003,8.613-0.002,17.225-0.002,25.838c0,0.12,0,0.24,0,0.403c-0.356,0-0.695,0.003-1.035-0.001
	c-0.371-0.004-0.789,0.091-1.098-0.05c-0.299-0.137-0.487-0.519-0.722-0.795c-4.233-4.992-8.466-9.984-12.7-14.976
	c-2.604-3.07-5.208-6.14-7.812-9.21c-0.041-0.049-0.085-0.095-0.165-0.185c-0.008,0.13-0.017,0.215-0.018,0.301
	c-0.007,3.599-0.013,7.198-0.02,10.797c-0.006,3.525-0.017,7.049-0.014,10.574c0,0.556,0.038,1.115,0.102,1.667
	c0.062,0.534,0.261,0.69,0.79,0.768c0.067,0.01,0.169,0.11,0.173,0.173C137.505,29.638,137.495,29.935,137.495,30.264z"/>
<path fill="#FFFFFF" d="M80.774,1.618c0-0.329,0-0.641,0-0.977c2.101,0,4.188,0,6.292,0c0,0.326,0,0.647,0,0.968
	c-0.015,0.011-0.029,0.029-0.044,0.03c-0.768,0.055-0.93,0.192-1.025,0.961c-0.05,0.404-0.064,0.816-0.064,1.224
	c-0.004,7.673-0.004,15.346,0,23.019c0,0.427,0.016,0.856,0.066,1.279c0.102,0.861,0.219,0.974,1.065,1.15c0,0.315,0,0.635,0,0.979
	c-2.089,0-4.177,0-6.284,0c0-0.323,0-0.651,0-0.976c0.018-0.008,0.026-0.013,0.035-0.015c0.846-0.132,0.95-0.219,1.04-1.081
	c0.055-0.525,0.056-1.058,0.057-1.587c0.003-7.357,0.004-14.714-0.001-22.07c0-0.603-0.026-1.208-0.079-1.809
	C81.761,1.927,81.563,1.738,80.774,1.618z"/>
<path fill="#FFFFFF" d="M25.425,42.821c-0.472,0-0.943,0-1.415,0c-0.018-0.02-0.037-0.04-0.055-0.059
	c0.062-0.071,0.139-0.134,0.183-0.214c0.08-0.143,0.192-0.294,0.199-0.446c0.024-0.529,0.01-1.059,0.01-1.589
	c0-0.781,0.004-1.561-0.002-2.342c-0.002-0.234,0.037-0.5-0.293-0.582c-0.031-0.008-0.066-0.116-0.05-0.161
	c0.014-0.041,0.094-0.084,0.145-0.085c0.426-0.007,0.852-0.004,1.37-0.004c-0.078,0.127-0.12,0.203-0.17,0.274
	c-0.069,0.099-0.201,0.192-0.205,0.292c-0.02,0.591-0.01,1.184-0.01,1.79c1.041,0,2.068,0,3.109,0c0-0.608,0.009-1.209-0.009-1.808
	c-0.003-0.091-0.131-0.177-0.198-0.268c-0.052-0.071-0.098-0.145-0.179-0.267c0.552,0,1.014,0,1.556,0
	c-0.059,0.11-0.097,0.189-0.142,0.263c-0.075,0.123-0.221,0.243-0.223,0.365c-0.016,1.403-0.012,2.806-0.007,4.209
	c0.001,0.167,0.03,0.332,0.252,0.378c0.049,0.01,0.074,0.138,0.128,0.246c-0.53,0-1.007,0-1.577,0
	c0.095-0.118,0.157-0.188,0.21-0.265c0.069-0.1,0.183-0.205,0.186-0.309c0.017-0.703,0.009-1.407,0.009-2.126
	c-1.038,0-2.065,0-3.108,0c0,0.736-0.005,1.466,0.007,2.196c0.001,0.08,0.101,0.162,0.162,0.237c0.06,0.074,0.129,0.141,0.193,0.21
	C25.477,42.779,25.451,42.8,25.425,42.821z"/>
<path fill="#FFFFFF" d="M83.742,38.256c-0.014,0.093-0.024,0.126-0.024,0.16c0.002,1.237,0.006,2.473,0.007,3.71
	c0,0.255,0.071,0.443,0.383,0.439c0,0.093,0,0.171,0,0.258c-0.39,0-0.768,0-1.149,0c-0.038-0.147-0.053-0.253,0.144-0.283
	c0.216-0.032,0.226-0.223,0.229-0.391c0.007-0.372,0.003-0.744,0.003-1.116c0-0.958,0.001-1.915-0.001-2.873
	c0-0.242,0.024-0.497-0.318-0.556c-0.043-0.007-0.064-0.138-0.117-0.263c0.372,0,0.686-0.017,0.997,0.01
	c0.096,0.008,0.196,0.126,0.268,0.214c1.149,1.413,2.295,2.83,3.441,4.246c0.029,0.036,0.061,0.069,0.116,0.13
	c0.014-0.082,0.031-0.139,0.032-0.196c0.002-1.218,0.001-2.436,0.001-3.654c0-0.222-0.003-0.433-0.301-0.481
	c-0.051-0.008-0.083-0.138-0.157-0.27c0.423,0,0.765-0.004,1.106,0.004c0.049,0.001,0.135,0.059,0.136,0.092
	c0.001,0.059-0.042,0.166-0.08,0.172c-0.347,0.059-0.311,0.327-0.312,0.562c-0.005,1.404-0.002,2.808-0.002,4.212
	c0,0.139,0,0.277,0,0.435c-0.378,0.038-0.69,0.085-0.982-0.292C86.059,41.1,84.912,39.709,83.742,38.256z"/>
<path fill="#FFFFFF" d="M131.103,42.821c-0.449,0-0.827,0-1.206,0c-0.033-0.149-0.044-0.251,0.152-0.288
	c0.085-0.016,0.169-0.149,0.211-0.247c0.037-0.088,0.019-0.201,0.019-0.303c0.001-1.292,0.001-2.584,0-3.876
	c0-0.23,0.005-0.456-0.312-0.501c-0.046-0.007-0.072-0.144-0.13-0.268c0.378,0,0.684-0.014,0.987,0.009
	c0.089,0.007,0.189,0.102,0.254,0.182c1.162,1.426,2.32,2.855,3.479,4.284c0.034,0.042,0.068,0.084,0.112,0.138
	c0.026-0.032,0.053-0.05,0.053-0.068c0.002-1.227,0.008-2.454-0.005-3.68c-0.003-0.24,0.048-0.549-0.34-0.601
	c-0.04-0.005-0.062-0.137-0.107-0.245c0.431,0,0.809,0,1.199,0c0.062,0.134,0.064,0.217-0.113,0.287
	c-0.102,0.04-0.189,0.174-0.233,0.286c-0.042,0.106-0.025,0.238-0.025,0.358c-0.001,1.394-0.001,2.788-0.001,4.182
	c0,0.111,0,0.221,0,0.342c-0.402,0.067-0.714,0.062-1.003-0.312c-1.075-1.388-2.192-2.744-3.293-4.112
	c-0.022-0.028-0.049-0.052-0.105-0.111c-0.011,0.101-0.025,0.167-0.025,0.232c-0.001,1.171-0.003,2.342,0.001,3.513
	c0.001,0.239-0.021,0.5,0.328,0.549C131.039,42.578,131.061,42.715,131.103,42.821z"/>
<path fill="#FFFFFF" d="M96.547,37.371c0.47,0,0.941,0,1.451,0c-0.03,0.098-0.038,0.224-0.077,0.235
	c-0.367,0.101-0.278,0.41-0.283,0.645c-0.017,0.892-0.009,1.784-0.005,2.676c0.001,0.185,0.017,0.372,0.046,0.554
	c0.077,0.478,0.346,0.826,0.825,0.9c0.433,0.067,0.89,0.088,1.32,0.024c0.606-0.091,0.999-0.548,1.021-1.191
	c0.037-1.086,0.019-2.174,0.006-3.261c-0.001-0.107-0.134-0.21-0.2-0.319c-0.045-0.073-0.079-0.153-0.135-0.265
	c0.39,0,0.713,0,1.093,0c-0.034,0.097-0.046,0.237-0.092,0.25c-0.262,0.07-0.253,0.278-0.255,0.467
	c-0.01,0.901,0.006,1.803-0.02,2.704c-0.01,0.357-0.066,0.724-0.171,1.065c-0.201,0.657-0.711,1.003-1.364,1.066
	c-0.52,0.05-1.059,0.043-1.575-0.035c-0.77-0.117-1.203-0.617-1.23-1.394c-0.037-1.058-0.023-2.118-0.033-3.177
	c-0.001-0.139,0.009-0.285-0.03-0.415c-0.03-0.1-0.126-0.18-0.195-0.268c-0.052-0.067-0.108-0.131-0.162-0.196
	C96.504,37.414,96.525,37.393,96.547,37.371z"/>
<path fill="#FFFFFF" d="M110.746,39.868c0.58,0,1.136,0,1.691,0c0.108-0.118,0.031-0.43,0.356-0.312c0,0.352,0,0.711,0,1.079
	c-0.361,0.123-0.222-0.241-0.36-0.358c-0.544,0-1.108,0-1.689,0c0,0.723,0,1.434,0,2.177c0.096,0.005,0.193,0.015,0.291,0.016
	c0.558,0.002,1.115,0.001,1.673,0.001c0.431,0,0.431,0,0.55-0.403c0.023-0.007,0.049-0.02,0.076-0.022
	c0.054-0.004,0.109-0.001,0.188-0.001c-0.04,0.267-0.077,0.51-0.121,0.797c-0.093,0-0.191,0-0.289,0
	c-1.106,0.005-2.212,0.012-3.317,0.012c-0.071,0-0.142-0.048-0.214-0.073c0.046-0.066,0.078-0.168,0.14-0.192
	c0.213-0.082,0.229-0.257,0.23-0.433c0.004-1.357,0.002-2.714,0.001-4.071c0-0.037,0.006-0.083-0.012-0.11
	c-0.076-0.113-0.164-0.219-0.24-0.332c-0.051-0.076-0.088-0.161-0.155-0.287c1.326,0,2.575,0,3.854,0
	c-0.028,0.15-0.037,0.289-0.083,0.414c-0.035,0.093-0.118,0.169-0.179,0.252c-0.074-0.065-0.148-0.131-0.222-0.196
	c0.013-0.021,0.026-0.043,0.04-0.064c-0.73,0-1.46,0-2.209,0C110.746,38.459,110.746,39.151,110.746,39.868z"/>
<path fill="#FFFFFF" d="M47.311,42.871c-0.388,0-0.776,0-1.173,0c-0.059-0.142-0.045-0.221,0.106-0.308
	c0.133-0.077,0.258-0.219,0.321-0.361c0.694-1.559,1.373-3.125,2.063-4.686c0.037-0.083,0.138-0.193,0.207-0.191
	c0.075,0.002,0.182,0.104,0.218,0.187c0.64,1.481,1.268,2.968,1.905,4.45c0.111,0.259,0.189,0.55,0.508,0.661
	c0.042,0.015,0.047,0.137,0.078,0.237c-0.549,0-1.062,0-1.576,0c-0.019-0.02-0.039-0.04-0.058-0.06
	c0.061-0.067,0.111-0.168,0.187-0.195c0.16-0.058,0.242-0.129,0.17-0.305c-0.153-0.378-0.298-0.76-0.46-1.134
	c-0.024-0.055-0.12-0.112-0.183-0.112c-0.66-0.008-1.32-0.008-1.979,0c-0.064,0.001-0.161,0.061-0.185,0.117
	c-0.15,0.359-0.286,0.724-0.421,1.089c-0.061,0.164-0.028,0.281,0.166,0.341c0.075,0.023,0.125,0.129,0.186,0.197
	C47.365,42.822,47.338,42.846,47.311,42.871z M47.656,40.696c0.672,0,1.298,0,1.957,0c-0.324-0.767-0.637-1.507-0.973-2.304
	C48.302,39.182,47.985,39.926,47.656,40.696z"/>
<path fill="#FFFFFF" d="M75.037,37.355c-0.053,0.656-0.056,0.661-0.363,0.656c-0.019-0.072-0.039-0.149-0.065-0.246
	c-0.732,0-1.471,0-2.225,0c0,0.702,0,1.395,0,2.099c0.581,0,1.146,0,1.708,0c0.145-0.322,0.145-0.322,0.357-0.309
	c0,0.359,0,0.719,0,1.084c-0.362,0.114-0.224-0.249-0.376-0.364c-0.539,0-1.105,0-1.688,0c0,0.721,0,1.434,0,2.17
	c0.068,0.009,0.139,0.025,0.209,0.025c0.642,0.002,1.283-0.002,1.925,0.003c0.19,0.002,0.329-0.033,0.348-0.258
	c0.017-0.211,0.154-0.189,0.309-0.143c-0.04,0.252-0.079,0.496-0.122,0.77c-0.107,0-0.207,0-0.307,0
	c-1.097,0.005-2.194,0.012-3.291,0.012c-0.072,0-0.143-0.047-0.215-0.072c0.045-0.066,0.091-0.132,0.134-0.199
	c0.078-0.124,0.219-0.248,0.22-0.374c0.016-1.394,0.012-2.789,0.005-4.184c-0.001-0.163-0.032-0.33-0.247-0.391
	c-0.058-0.016-0.081-0.157-0.138-0.281C72.531,37.355,73.772,37.355,75.037,37.355z"/>
<path fill="#FFFFFF" d="M160.496,42.166c-0.119,0.164-0.197,0.381-0.347,0.46c-1.101,0.578-2.969,0.552-3.997-0.44
	c-1.536-1.483-0.883-4.086,1.201-4.758c1.022-0.33,2.032-0.202,3.029,0.118c0.017,0.572-0.088,0.727-0.47,0.692
	c-0.01-0.357-0.218-0.584-0.556-0.609c-0.495-0.037-1.011-0.091-1.489,0.005c-0.943,0.188-1.428,0.869-1.615,1.78
	c-0.269,1.31,0.322,2.536,1.45,2.961c0.843,0.318,1.676,0.25,2.481-0.154c0.066-0.033,0.13-0.072,0.196-0.104
	C160.39,42.112,160.411,42.129,160.496,42.166z"/>
<path fill="#FFFFFF" d="M62.194,37.375c0.432,0,0.793,0,1.235,0c-0.075,0.126-0.121,0.214-0.176,0.295
	c-0.096,0.144-0.227,0.273-0.291,0.429c-0.634,1.545-1.256,3.095-1.892,4.639c-0.033,0.081-0.159,0.144-0.255,0.172
	c-0.132,0.039-0.204-0.033-0.259-0.174c-0.621-1.59-1.251-3.177-1.888-4.76c-0.048-0.12-0.168-0.211-0.254-0.315
	c-0.062-0.075-0.123-0.151-0.229-0.282c0.579,0,1.06,0,1.643,0c-0.107,0.126-0.171,0.194-0.226,0.269
	c-0.049,0.068-0.142,0.164-0.124,0.213c0.501,1.307,1.015,2.61,1.526,3.913c0.002,0.006,0.016,0.008,0.044,0.021
	c0.245-0.628,0.491-1.255,0.734-1.883c0.235-0.606,0.471-1.21,0.697-1.819c0.069-0.186,0.177-0.406-0.169-0.464
	C62.267,37.621,62.244,37.488,62.194,37.375z"/>
<path fill="#FFFFFF" d="M148.247,37.312c-0.091,0.12-0.135,0.2-0.199,0.259c-0.198,0.186-0.461,0.329-0.595,0.551
	c-0.428,0.707-0.813,1.439-1.204,2.168c-0.068,0.127-0.119,0.281-0.12,0.423c-0.003,0.52,0.021,1.04,0.031,1.56
	c0.003,0.164,0.075,0.248,0.238,0.292c0.08,0.021,0.138,0.123,0.206,0.189c-0.017,0.024-0.034,0.048-0.051,0.071
	c-0.543,0-1.087,0-1.629,0c-0.052-0.165-0.016-0.238,0.159-0.282c0.093-0.023,0.219-0.162,0.223-0.255
	c0.028-0.547,0.028-1.096,0.03-1.644c0-0.069-0.036-0.145-0.072-0.208c-0.375-0.652-0.738-1.312-1.136-1.95
	c-0.233-0.372-0.461-0.77-0.929-0.916c-0.037-0.011-0.085-0.096-0.073-0.124c0.018-0.045,0.078-0.095,0.127-0.103
	c0.721-0.125,1.061,0.036,1.428,0.68c0.39,0.686,0.774,1.375,1.182,2.102c0.098-0.166,0.181-0.303,0.259-0.442
	c0.29-0.519,0.581-1.037,0.864-1.56c0.11-0.203,0.286-0.409,0.044-0.645c-0.025-0.025,0.001-0.102,0.004-0.166
	C147.419,37.312,147.788,37.312,148.247,37.312z"/>
<path fill="#FFFFFF" d="M0.695,39.859c0-0.865,0-1.687,0-2.52c0.983,0,1.955,0,2.951,0c0,0.21,0,0.399,0,0.622
	c-0.862,0-1.722,0-2.592,0c0,0.456,0,0.877,0,1.31c0.276-0.045,0.529-0.114,0.783-0.123c0.684-0.024,1.271,0.192,1.636,0.808
	c0.343,0.578,0.236,1.322-0.254,1.889c-0.614,0.711-1.422,1.034-2.336,1.076c-0.288,0.013-0.413-0.304-0.612-0.471
	c0.013-0.027,0.026-0.054,0.038-0.082c0.092,0.014,0.184,0.028,0.276,0.041C1.316,42.506,2,42.413,2.554,41.876
	c0.456-0.442,0.567-1.186,0.274-1.667c-0.29-0.477-0.965-0.696-1.582-0.514C1.072,39.746,0.898,39.798,0.695,39.859z"/>
<path fill="#FFFFFF" d="M15.973,37.365c0,0.207,0,0.399,0,0.598c-0.169,0.042-0.307,0.06-0.391-0.135
	c-0.02-0.047-0.125-0.078-0.192-0.079c-0.426-0.007-0.851-0.004-1.311-0.004c0,0.106,0,0.205,0,0.303
	c0.003,1.274,0.001,2.547,0.013,3.821c0.003,0.295-0.054,0.64,0.378,0.732c0.034,0.007,0.043,0.133,0.07,0.223
	c-0.565,0-1.092,0-1.62,0c-0.019-0.02-0.039-0.041-0.058-0.061c0.063-0.062,0.117-0.16,0.191-0.18
	c0.173-0.047,0.25-0.145,0.257-0.315c0.004-0.083,0.017-0.167,0.017-0.25c0.001-1.413,0.001-2.825,0.001-4.262
	c-0.474,0-0.933-0.002-1.392,0.003c-0.038,0-0.077,0.044-0.115,0.069c-0.103,0.068-0.205,0.137-0.37,0.247c0-0.298,0-0.489,0-0.708
	C12.944,37.365,14.444,37.365,15.973,37.365z"/>
<path display="none" fill="#FFFFFF" d="M-26.616,49.023c0-36.676,0-73.174,0-109.745c0.086-0.021,0.232-0.09,0.376-0.087
	c10.668,0.205,21.344,0.249,32.002,0.698c5.288,0.223,10.62,0.829,15.8,1.899c9.832,2.03,17.266,7.866,22.946,15.966
	c4.905,6.994,7.324,14.96,8.365,23.346c1.471,11.854,0.497,23.518-3.046,34.955c-3.233,10.437-9.202,18.884-18.144,25.191
	c-5.177,3.652-11.054,5.462-17.234,6.457c-5.974,0.962-11.994,1.299-18.036,1.315c-7.119,0.019-14.237,0.005-21.356,0.005
	C-25.416,49.023-25.89,49.023-26.616,49.023z"/>
<path display="none" fill="#FFFFFF" d="M-61.14,103.066c1.414-3.311,2.779-6.509,4.23-9.908c1.448,3.426,2.792,6.608,4.186,9.908
	C-55.559,103.066-58.248,103.066-61.14,103.066z"/>
</svg>
