<svg width="71" height="79" viewBox="0 0 71 79" fill="none" xmlns="http://www.w3.org/2000/svg">
<path d="M26.6384 27.5398L26.6532 27.5266C26.6671 27.5143 26.6776 27.5051 26.6863 27.4976C26.7022 27.4837 26.7115 27.4756 26.723 27.4641C26.7647 27.4223 26.8044 27.3772 26.8437 27.3284L26.855 27.3144L26.8677 27.3016L30.2933 23.8728C33.1661 20.9972 33.1661 16.3175 30.2933 13.4421L19.3566 2.49557C17.8673 1.00492 15.8076 0.222988 13.705 0.348833L26.6384 27.5398ZM26.6384 27.5398L26.6253 27.5545M26.6384 27.5398L26.6253 27.5545M26.6253 27.5545C26.1921 28.0419 25.9517 28.6635 25.9517 29.3223C25.9517 30.0339 26.2292 30.7044 26.7321 31.2077L39.8106 44.2982C39.8106 44.2982 39.8106 44.2982 39.8107 44.2983C40.3132 44.8017 40.9837 45.0795 41.6945 45.0795C42.4055 45.0795 43.0757 44.8016 43.5784 44.2985L47.1395 40.7341C50.0123 37.8589 54.687 37.8589 57.5598 40.7341L68.5062 51.6898C69.9953 53.1803 70.7774 55.2424 70.6511 57.3464L70.9862 57.3665L70.6511 57.3464C70.5249 59.4509 69.5023 61.4047 67.8456 62.7065L65.1489 64.8254L64.8898 65.029L65.0886 65.2918C66.8676 67.6437 67.271 70.6872 66.1073 73.4991L66.4175 73.6275L66.1073 73.4991C64.7878 76.6877 61.8319 78.6643 58.3842 78.6643H39.8304C38.9243 78.6643 38.1889 77.9289 38.1889 77.021C38.1889 76.1131 38.9243 75.3777 39.8304 75.3777H58.3842C60.8869 75.3777 62.4495 73.7509 63.0742 72.2411C63.6493 70.852 63.7299 68.8325 62.3578 67.1355L62.1757 66.9103L61.9262 67.0574C57.7613 69.5144 53.0991 70.729 48.4515 70.729C41.6097 70.729 34.8007 68.1015 29.647 62.9431L8.11443 41.3908C-1.38709 31.8804 -2.29527 16.7304 6.00218 6.15115L5.73805 5.94398L6.00218 6.15114L8.35086 3.15654L8.35088 3.15653M26.6253 27.5545L8.35088 3.15653M8.35088 3.15653C9.65111 1.49852 11.6029 0.47509 13.705 0.348837L8.35088 3.15653ZM11.1966 5.39343L10.9325 5.18627C11.6632 4.25461 12.7198 3.70062 13.9012 3.62953L11.1966 5.39343ZM11.1966 5.39343L10.9325 5.18627L9.29302 7.27667L9.10948 7.51069L9.31969 7.72108L25.3158 23.7319L25.5533 23.9696M11.1966 5.39343L25.5533 23.9696M25.5533 23.9696L25.7908 23.7319M25.5533 23.9696L25.7908 23.7319M25.7908 23.7319L27.9717 21.5489C28.7429 20.7772 29.1683 19.7493 29.1683 18.6578C29.1683 17.5663 28.7429 16.5385 27.9718 15.7667L17.0351 4.81998C17.0351 4.81997 17.035 4.81996 17.035 4.81995M25.7908 23.7319L17.035 4.81995M17.035 4.81995C16.1983 3.98224 15.0839 3.55824 13.9012 3.62953L17.035 4.81995ZM7.46235 10.5097L7.15851 10.2056L6.93713 10.5741C1.4975 19.6293 2.79985 31.4245 10.4352 39.0666L31.968 60.6192C39.6035 68.2612 51.3878 69.5651 60.4356 64.1207L60.8034 63.8994L60.5 63.5958L44.7281 47.8094L44.5573 47.6384L44.3409 47.7462C43.529 48.1508 42.6292 48.3665 41.6947 48.3665C40.1055 48.3665 38.6133 47.7477 37.4895 46.6228L24.4109 33.5322C23.2871 32.4074 22.6687 30.9135 22.6687 29.3227C22.6687 28.3872 22.8842 27.4865 23.2884 26.674L23.3959 26.4579L23.2254 26.2872L7.46235 10.5097ZM63.2848 61.7359L63.4954 61.9467L63.7297 61.7626L65.818 60.1216C66.749 59.39 67.3026 58.3325 67.3734 57.1501C67.4442 55.9677 67.021 54.8519 66.184 54.0144L55.2382 43.0585C53.6452 41.4638 51.0533 41.4636 49.4604 43.0585C49.4604 43.0585 49.4604 43.0585 49.4604 43.0585L47.2796 45.2415L47.0426 45.4788L47.2796 45.716L63.2848 61.7359Z" fill="white" stroke="black" stroke-width="0.671362"/>
<path d="M34.7726 53.0681L34.7726 53.068L16.5828 34.8552C16.5827 34.8552 16.5827 34.8552 16.5827 34.8551C15.9415 34.2136 14.9027 34.2136 14.2614 34.8552L34.7726 53.0681ZM34.7726 53.0681C35.4138 53.71 35.4138 54.7507 34.7726 55.3925C34.452 55.7134 34.0325 55.8737 33.612 55.8737C33.1916 55.8737 32.7721 55.7134 32.4515 55.3925L14.2614 37.1796L14.2614 37.1796M34.7726 53.0681L14.2614 37.1796M14.2614 37.1796C13.6202 36.5376 13.6202 35.497 14.2613 34.8552L14.2614 37.1796Z" fill="#F69CBA" stroke="#F59BBB" stroke-width="0.671362"/>
</svg>
