<svg width="80" height="80" viewBox="0 0 80 80" fill="none" xmlns="http://www.w3.org/2000/svg">
<path d="M78.6665 40.0001C78.6665 60.2506 58.3332 74.0001 47.9998 77.6667L51.6665 68.0001L56.3332 52.0001L56.9998 34.6667L55.3332 19.6667L47.6665 3.00008C59.3332 6.33341 78.6665 19.7497 78.6665 40.0001Z" fill="#F59BBB"/>
<path d="M75.6123 21.819C68.9793 8.88162 55.5112 0 40 0C24.4837 0 11.0139 8.88502 4.38264 21.8317C4.35632 21.8835 4.3249 21.9302 4.30452 21.9845C1.55825 27.4032 0 33.5216 0 40C0 46.4801 1.55825 52.5985 4.30452 58.0155C4.3249 58.0698 4.35632 58.1165 4.38264 58.1683C11.0122 71.115 24.4837 80 40 80C55.5112 80 68.9793 71.1201 75.6123 58.181C75.642 58.1233 75.6768 58.0715 75.6989 58.0104C78.4434 52.5934 80 46.4767 80 40C80 33.5233 78.4434 27.4066 75.6989 21.9896C75.6751 21.9285 75.642 21.8767 75.6123 21.819ZM72.9475 55.6522H57.6605C58.5097 51.3672 59.0141 46.6814 59.1092 41.7391H76.4334C76.1982 46.7009 74.9771 51.3986 72.9475 55.6522ZM40 76.5217C34.499 76.5217 29.5652 69.4693 26.7672 59.1304H53.2328C50.4348 69.4693 45.501 76.5217 40 76.5217ZM25.9358 55.6522C25.0365 51.3757 24.4922 46.6729 24.3877 41.7391H55.614C55.5078 46.6729 54.9635 51.3757 54.0659 55.6522H25.9358ZM3.56658 41.7391H20.8908C20.9876 46.6814 21.4903 51.3672 22.3395 55.6522H7.05248C5.02293 51.3986 3.8018 46.7009 3.56658 41.7391ZM7.05248 24.3478H22.3395C21.4903 28.6328 20.9859 33.3186 20.8908 38.2609H3.56658C3.8018 33.2991 5.02293 28.6014 7.05248 24.3478ZM40 3.47826C45.501 3.47826 50.4348 10.5307 53.2328 20.8696H26.7672C29.5652 10.5307 34.499 3.47826 40 3.47826ZM54.0642 24.3478C54.9635 28.6226 55.5078 33.3271 55.6123 38.2609H24.386C24.4922 33.3271 25.0365 28.6226 25.9341 24.3478H54.0642ZM59.1092 38.2609C59.0124 33.3186 58.5097 28.6328 57.6605 24.3478H72.9475C74.9771 28.6014 76.1982 33.2991 76.4334 38.2609H59.1092ZM71.0504 20.8696H56.8733C55.1129 13.9691 52.4142 8.34069 49.1075 4.67476C58.3441 7.05927 66.1566 12.9552 71.0504 20.8696ZM30.8908 4.67476C27.5858 8.34069 24.8871 13.9691 23.125 20.8696H8.94786C13.8434 12.9552 21.6559 7.05927 30.8908 4.67476ZM8.94956 59.1304H23.125C24.8854 66.0309 27.5841 71.6593 30.8908 75.3252C21.6559 72.9407 13.8434 67.0431 8.94956 59.1304ZM49.1092 75.3252C52.4142 71.6593 55.1129 66.0309 56.875 59.1304H71.0504C66.1566 67.0431 58.3441 72.9407 49.1092 75.3252Z" fill="white"/>
</svg>
