<svg style = "width:130px; height:100px;" width="194" height="153" viewBox="0 0 124 103" fill="none" xmlns="http://www.w3.org/2000/svg">
<path d="M113.796 56.1858L114.117 56.282L113.796 56.1858C113.524 57.1047 112.568 57.6337 111.65 57.3764C107.46 56.2024 103.046 58.6504 101.806 62.8332C100.565 67.016 102.928 71.4886 107.076 72.8041C107.985 73.0924 108.497 74.0595 108.225 74.9782L105.208 85.1544C104.712 86.827 103.598 88.2044 102.069 89.0354C100.539 89.8662 98.7817 90.0493 97.1156 89.5517L97.0203 89.8737L97.1156 89.5517L84.3111 85.7279L84.0257 85.6426L83.9079 85.9163L82.632 88.8787C81.208 92.1848 77.3699 93.7108 74.0777 92.2825L60.3044 86.3071L6.41316 62.9272C3.12092 61.4989 1.59887 57.6474 3.02271 54.3415L7.22009 44.596C7.59909 43.716 8.61051 43.3046 9.49148 43.6694L9.49157 43.6694C13.5136 45.3334 18.1858 43.4277 19.9111 39.4219C21.6364 35.4161 19.8185 30.6946 15.8551 28.8945C14.9868 28.5 14.5924 27.4788 14.9715 26.5987L19.1689 16.8532C20.5927 13.5473 24.4308 12.0213 27.7232 13.4492C27.7233 13.4492 27.7233 13.4492 27.7233 13.4492L36.5817 17.2923L36.7299 17.3566L36.8724 17.2807C38.3907 16.4713 40.1295 16.2958 41.7787 16.7882L112.433 37.8879C114.099 38.3856 115.471 39.5033 116.299 41.0377C117.126 42.5723 117.309 44.3368 116.813 46.0097L113.796 56.1858ZM63.6046 83.9136L63.6054 83.914L75.4658 89.0595C76.9902 89.7208 78.7641 89.014 79.4221 87.4862L80.5007 84.982L82.1662 81.1151L82.8766 79.4661L82.9864 79.2113L82.7571 79.0549C80.8425 77.7482 79.3661 75.892 78.5121 73.6801C77.4129 70.8326 77.4723 67.7218 78.6799 64.9179C79.8875 62.1141 82.1044 59.9393 84.9243 58.7921C87.1148 57.901 89.4736 57.7086 91.7337 58.2131L92.0042 58.2735L92.114 58.0187L95.5683 49.9983C96.2265 48.4703 95.5238 46.6893 93.9996 46.028L82.1406 40.8829L82.1393 40.8823L80.0713 39.974L80.0682 39.9727L78.3135 39.2226L78.3127 39.2222L37.6469 21.5799L33.8181 19.9188L26.335 16.6724C24.8107 16.0111 23.0367 16.7179 22.3787 18.2457L18.9243 26.2661L18.8146 26.5209L19.0438 26.6773C20.9584 27.9839 22.4346 29.8401 23.2886 32.052C24.3881 34.8996 24.3286 38.0104 23.121 40.8142C21.9134 43.618 19.6964 45.7928 16.8764 46.94L17.0031 47.2514L16.8764 46.94C14.6861 47.8312 12.3274 48.0236 10.0673 47.5191L9.79669 47.4587L9.68697 47.7134L6.23268 55.7337C5.57457 57.2617 6.27727 59.0427 7.80139 59.7039L22.2976 65.9929L36.454 72.1345L59.7797 82.2543L59.7805 82.2546L61.6483 83.0589L61.6499 83.0596L63.6046 83.9136ZM100.405 85.948L100.405 85.9479C101.111 85.5642 101.627 84.9261 101.856 84.154L104.339 75.7791L104.418 75.5129L104.171 75.3847C102.116 74.3149 100.431 72.6476 99.3219 70.5529C97.8942 67.8564 97.5859 64.7603 98.4538 61.8326C99.3217 58.9049 101.266 56.4818 103.931 55.007C106.001 53.8618 108.32 53.3902 110.624 53.6221L110.9 53.6499L110.978 53.384L113.461 45.0092C113.69 44.237 113.606 43.4194 113.223 42.7105C112.841 42.0017 112.204 41.483 111.435 41.2533L53.8636 24.0604L53.6356 24.6907L81.6145 36.829L95.3878 42.8044C98.6801 44.2326 100.202 48.0841 98.7782 51.3902L94.5808 61.1357C94.2018 62.0159 93.1906 62.4273 92.3092 62.0627C88.2872 60.3984 83.6151 62.304 81.8897 66.31C80.1643 70.316 81.9822 75.0375 85.9456 76.8376C86.814 77.2321 87.2083 78.2533 86.8293 79.1334L85.5733 82.0496L85.4236 82.397L85.786 82.5052L98.1137 86.1866C98.8838 86.4167 99.6988 86.3315 100.405 85.948Z" fill="white" stroke="black" stroke-width="0.671362"/>
<path d="M55.9328 49.5408L50.1556 45.9675L49.8133 39.1653C49.7839 38.582 49.4272 38.066 48.8931 37.8343C48.359 37.6026 47.74 37.6953 47.2966 38.0734L42.7465 41.9538L42.1252 42.4836L39.6453 41.8116L35.5737 40.7083C35.0119 40.556 34.4127 40.7372 34.028 41.1754C33.6432 41.6136 33.54 42.2331 33.7613 42.7732L35.9094 48.0157L36.3423 49.0722L34.8483 51.3715L32.6353 54.7771C32.3174 55.2662 32.3038 55.8942 32.6002 56.3969C32.8966 56.8994 33.4516 57.1897 34.0319 57.1452L40.7987 56.6281L45.0593 61.9293C45.2179 62.1268 45.4191 62.2775 45.6424 62.3744C45.9333 62.5006 46.262 62.5355 46.5833 62.4633C47.1512 62.3357 47.5976 61.8955 47.7348 61.3279L49.3357 54.7092L55.6759 52.2806C56.2196 52.0723 56.5983 51.5723 56.6529 50.9909C56.7074 50.4095 56.4282 49.8474 55.9328 49.5408Z" fill="#F59BBB"/>
<line x1="1.40986" y1="-1.40986" x2="48.1573" y2="-1.40986" transform="matrix(0.406766 -0.913532 0.912429 0.409235 62.7556 85.2532)" stroke="white" stroke-width="2.81971" stroke-linecap="round" stroke-dasharray="3.36 5.37"/>
</svg>
